<svg xmlns="http://www.w3.org/2000/svg" viewBox="0 0 953.77 1108.82"><defs><style>.cls-1{fill:#231815;}.cls-2{fill:#878787;}.cls-3{fill:#169da3;}.cls-4{fill:#00bfa6;}.cls-5{fill:#ffe7de;}.cls-6{fill:#f9a948;}.cls-7{fill:#fff;}</style></defs><title>자산 11</title><g id="레이어_2" data-name="레이어 2"><g id="레이어_5" data-name="레이어 5"><path class="cls-1" d="M408,195c-16.85-.92-28.92,12.58-38.63,24.47a2.57,2.57,0,0,0,0,3.53,2.53,2.53,0,0,0,3.54,0c8.82-10.79,19.68-23.84,35.09-23,3.22.17,3.21-4.83,0-5Z"/><path class="cls-2" d="M430.37,217.51a116.2,116.2,0,0,1-.86-22.22,102.68,102.68,0,0,1,1.07-10.49c.24-1.56.61-5,2.77-4.91,2.73,0,3.94,3.7,4.7,5.77q1.77,4.83,3.15,9.77a129.62,129.62,0,0,1,4,20.85,141,141,0,0,1,.51,23.78c-.2,3.21,4.8,3.2,5,0a139.59,139.59,0,0,0-4.95-46.86,99,99,0,0,0-3.66-10.86c-1.42-3.43-3.76-6.76-7.7-7.34-8.64-1.27-9,10.14-9.57,15.91a121.94,121.94,0,0,0,.72,27.93c.18,1.34,1.89,2.07,3.07,1.75a2.58,2.58,0,0,0,1.75-3.08Z"/><path class="cls-3" d="M663.33,1038.42,556.17,917.54l29.9-137.89,29.16-116.89,10.93-30.19,74.68,129.64s-21.14,114.94-23,116.17.91,89.64.91,89.64l4.64,40.81L663.8,1029Z"/><path class="cls-4" d="M702.9,718l-2.06,44.21L662.53,944.05l-1.56,9.1a212.11,212.11,0,0,0,0,71.93l2.31,13.34,24,31.43a55.29,55.29,0,0,0,21.67,17l13.51,5.92a55.15,55.15,0,0,0,44.55-.14h0a55.1,55.1,0,0,0,31.67-39.84l3.88-20,9.9-67.55,6.06-72.72-3.34-117.23-4-29.52s-.11-43.88,0-44.93-38.51-6.18-38.51-6.18l-29.67,6Z"/><path class="cls-4" d="M261,452.17s118.45,2,140.1,20.29l2.64.62v14.61s179,50,222.56,144.88l-20.65,70.3L583.09,803.93l-10.45,66.72-20.87,231.91H153L2.22,1108.82,6.48,905.26,20,802.92l22.15-92.26,34.77-76.84,45.13-58,46.05-40.49,72.76-49.77s14.2-5.28,18.25-4.85Z"/><path class="cls-5" d="M376.15,310.17c15.17,0,29.7-13.34,29-29s-12.74-29-29-29c-15.17,0-29.7,13.34-29,29s12.74,29,29,29Z"/><path class="cls-1" d="M448,307.69c4.05,13.91,8.53,27.74,10.82,42.08,2.19,13.74,2.34,28.75-4.12,41.44A43,43,0,0,1,442,406.39a51.32,51.32,0,0,1-17.64,8.1c-12.69,3.25-26.27,2.72-39.06.32-17.59-3.31-34.37-9.94-51.94-13.35q-3.36-.65-6.73-1.13a2.59,2.59,0,0,0-3.08,1.75,2.51,2.51,0,0,0,1.75,3.07c18.67,2.67,36.33,9.63,54.69,13.67,13.63,3,27.93,4,41.7,1.39s26.6-9.8,34.56-21.71c8.42-12.59,9.93-28.23,8.37-42.95-1.61-15.13-6-29.72-10.31-44.25q-.74-2.46-1.46-4.94c-.9-3.08-5.72-1.77-4.82,1.33Z"/><path class="cls-1" d="M424,219.24c7.73,13.6,20.07,23.38,30.93,34.33a114.59,114.59,0,0,1,7.84,8.64c2,2.52,4.25,5.21,5.08,8.4a10.81,10.81,0,0,1-.79,7.17,29.26,29.26,0,0,1-5,7.07c-2.39,2.66-5,5.11-7.48,7.67-1.18,1.21-2.33,2.43-3.4,3.73-.72.88-1.2,1.86-1.83,2.8s-1.33,1.85-1.93,2.83c-1.69,2.75,2.64,5.26,4.32,2.52.5-.81,1.06-1.58,1.61-2.36s.87-1.56,1.37-2.25a32.93,32.93,0,0,1,3.17-3.51c2.3-2.37,4.69-4.64,6.94-7.06,4.21-4.51,8.5-10,8.31-16.54a17.65,17.65,0,0,0-3.51-9.63,95.51,95.51,0,0,0-7.67-9.37c-5.34-5.78-11.23-11-16.88-16.51-6.35-6.18-12.37-12.71-16.78-20.46-1.59-2.8-5.91-.28-4.31,2.53Z"/><path class="cls-1" d="M406.83,142.88a223.17,223.17,0,0,1,14.67,57.23q1,8.37,1.32,16.79c.13,3.21,5.13,3.23,5,0a228.36,228.36,0,0,0-10.39-59.28q-2.58-8.15-5.78-16.07a2.58,2.58,0,0,0-3.07-1.75,2.52,2.52,0,0,0-1.75,3.08Z"/><path class="cls-1" d="M398.2,229.75l.16,20c0,2.32,3.57,3.6,4.66,1.26a27.49,27.49,0,0,0-.18-23.65,2.51,2.51,0,0,0-3.42-.9,2.55,2.55,0,0,0-.9,3.42,22.07,22.07,0,0,1,.18,18.6l4.66,1.27-.16-20c0-3.22-5-3.22-5,0Z"/><path class="cls-2" d="M415.42,203.57c-2.05-6.47-4.47-13.54-10.5-17.38-5.5-3.49-12.87-3.32-17.08,2-2.17,2.76-3.34,6.16-4.44,9.45a95.34,95.34,0,0,0-3,10.9,100.64,100.64,0,0,0-2.12,22.23,98.8,98.8,0,0,0,3,22.58c1.46,5.78,3.81,11.44,7.71,16s9.35,7.14,15.27,6.12c6.69-1.16,11.61-6.84,13.92-12.91a39.85,39.85,0,0,0,2.16-12.05c.23-4.43.17-8.89,0-13.32a194.79,194.79,0,0,0-3-27.24,2.52,2.52,0,0,0-3.07-1.75,2.56,2.56,0,0,0-1.75,3.08,181.11,181.11,0,0,1,2.58,21.54,122,122,0,0,1-.08,21.28c-.64,5.61-2.72,11.6-7.69,14.8a10.27,10.27,0,0,1-12.26-.56c-3.88-3-6.32-7.82-7.87-12.39a79.74,79.74,0,0,1-3.63-18.87,95.2,95.2,0,0,1,5-39.4c.94-2.68,2-5.87,4.32-7.68,2.14-1.66,5-1.52,7.43-.57,6.2,2.44,8.37,9.67,10.19,15.43,1,3.06,5.8,1.75,4.82-1.33Z"/><path class="cls-2" d="M410.29,203.84a36,36,0,0,1,2.1,7,2.51,2.51,0,0,0,4.57.6,2.81,2.81,0,0,0,.26-1.93,36,36,0,0,0-2.11-7A2.74,2.74,0,0,0,414,201a2.51,2.51,0,0,0-3.42.9,2.41,2.41,0,0,0-.25,1.92Z"/><path class="cls-2" d="M419.44,225.49c.5-.43-.49.34,0,0l.49-.34c.37-.24.75-.47,1.13-.69.9-.52,1.83-1,2.77-1.45l1.42-.67.67-.29.36-.15c.43-.19-.54.22-.14.05.77-.31,1.53-.61,2.32-.85a2.5,2.5,0,1,0-1.33-4.82,40,40,0,0,0-5.83,2.41A25.5,25.5,0,0,0,415.9,222a2.53,2.53,0,0,0,0,3.54,2.57,2.57,0,0,0,3.54,0Z"/><path class="cls-6" d="M270.65,276.55s8.3-48.93,9.72-66.35l2.13-8.46,34.95-9.83a33.82,33.82,0,0,0,5.9-2.29l48.37-24.29c.71-.35,1.41-.73,2.09-1.14L411.06,142a33.7,33.7,0,0,0,5-3.68l21.47-19a33.16,33.16,0,0,0,7.65-10h0a32.49,32.49,0,0,0,3.45-12.45c.53-8-.56-20.43-9.85-31.46L408.76,29.27,369.1,9.11,335.94,2.68,309.4,5.58l-26.52,7.19L254.83,27,236.58,42.11l-13,24.4,2.27,16.18,4.21,10.81-24.87,8.61-28,19.85-21,31-7.52,29.65,1.66,34.24,10.36,23.87,13.67,26.06,22.74,17.1,17,9.29,12.85-23s19.8-5.42,20.51-4.59S270.65,276.55,270.65,276.55Z"/><path class="cls-1" d="M275.73,279.47c-5.53-9.68-16.11-15.39-27-16.33a33.62,33.62,0,0,0-16,2.55,32.51,32.51,0,0,0-13,10.43c-7.2,9.52-9.29,22.12-8.94,33.8a86.82,86.82,0,0,0,.8,9.24,45,45,0,0,0,2.07,9.62c2.57,6.94,8.41,11.11,14.21,15.27,12.76,9.14,27.21,18.58,43.59,17.77,3.21-.16,3.23-5.16,0-5-13.41.66-25.45-6.29-36.14-13.63q-4-2.76-8-5.65a31.86,31.86,0,0,1-6.68-6.12c-3.59-4.74-4.16-11.43-4.64-17.19-.88-10.55,0-21.92,5.24-31.34a29.63,29.63,0,0,1,10.29-11A27,27,0,0,1,244.59,268c10.53-.39,21.46,4.57,26.82,14,1.59,2.79,5.91.28,4.32-2.53Z"/><path class="cls-1" d="M278.29,343.43c-3.41-9.42-13.09-13.84-22.21-16s-20.57-3.07-26-11.73c-2.34-3.72-3.29-8.28-.78-12.08,1.78-2.7-2.55-5.21-4.31-2.53-5.51,8.35.11,19.3,7.67,24.14,9.21,5.88,20.64,5.23,30.35,9.72,4.4,2,8.73,5.09,10.44,9.83a2.55,2.55,0,0,0,3.07,1.74,2.51,2.51,0,0,0,1.75-3.07Z"/><path class="cls-1" d="M245.78,357.41q4.14,38.91,9.92,77.64,1.64,10.9,3.39,21.8a2.52,2.52,0,0,0,3.08,1.75,2.55,2.55,0,0,0,1.74-3.07q-6.15-38.1-10.69-76.44-1.29-10.83-2.44-21.68a2.57,2.57,0,0,0-2.5-2.5,2.52,2.52,0,0,0-2.5,2.5Z"/><path class="cls-1" d="M263.64,456a302.72,302.72,0,0,1,138.25,19.53,2.52,2.52,0,0,0,3.08-1.75,2.56,2.56,0,0,0-1.75-3.08A305.18,305.18,0,0,0,350,455.27a310.17,310.17,0,0,0-55.14-5.58A300.44,300.44,0,0,0,263.64,451a2.56,2.56,0,0,0-2.5,2.5,2.52,2.52,0,0,0,2.5,2.5Z"/><path class="cls-1" d="M261.24,476.3A350.56,350.56,0,0,1,310,473.6a345.9,345.9,0,0,1,48.74,4.14q13.62,2.14,27,5.36c3.12.75,4.46-4.07,1.32-4.82a355.75,355.75,0,0,0-48.86-8.13,351.68,351.68,0,0,0-49.33-1.22q-13.89.63-27.7,2.37a2.59,2.59,0,0,0-2.5,2.5,2.52,2.52,0,0,0,2.5,2.5Z"/><path class="cls-1" d="M239.48,483.38c-47.08,29.27-92,62.74-129.88,103.47-13.9,15-26.81,30.61-37.08,48.31A334.43,334.43,0,0,0,49.2,685.5C34.4,725,24.86,766.34,17.71,807.81A1223.82,1223.82,0,0,0,2.8,937.31C.46,973.57-.6,1010,.34,1046.32q.15,5.45.36,10.9c.13,3.21,5.13,3.22,5,0C4.34,1022.6,5,987.88,6.86,953.28A1259.48,1259.48,0,0,1,19.74,826.19C26.23,784.36,35,742.65,48.47,702.47c11.74-35,27.25-68.64,51.24-97,35.66-42.1,79.11-76.87,125.18-106.92Q233.4,493,242,487.7c2.72-1.69.22-6-2.53-4.32Z"/><path class="cls-7" d="M155.44,1102.56c0-18.36-1-36.74-2.21-55.06q-2.41-36.59-6.54-73c-2.86-25.54-6.3-51-10.75-76.35-3.81-21.64-8.21-43.33-14.82-64.31a168.53,168.53,0,0,0-9-23.33C105.67,797.27,97.66,784,86.8,774a68.83,68.83,0,0,0-9.48-7.35,2.56,2.56,0,0,0-3.42.9c-4.89,7.31-4.08,16.33-1.22,24.25,3.25,9,8.67,17,13.34,25.3,10,17.82,19.12,36.14,28.64,54.23,5.46,10.36,11.08,20.63,17.05,30.69,1.64,2.77,6,.26,4.32-2.52-10.19-17.18-19.29-35-28.46-52.68-4.5-8.71-9-17.4-13.75-26q-3.7-6.74-7.57-13.39c-2.29-3.93-4.67-7.82-6.63-11.94-3.73-7.85-6.66-17.58-1.4-25.43l-3.42.9c13.46,8.66,22.47,22.36,30,36.2a144.59,144.59,0,0,1,10,23.24c6.77,20,11.19,40.91,15,61.69,4.56,24.69,8.07,49.56,11,74.49q4.29,36.56,6.91,73.27c1.37,19.17,2.47,38.38,2.71,57.6q0,2.57,0,5.13c0,3.22,5,3.22,5,0Z"/><path class="cls-1" d="M203.49,284.75a102.22,102.22,0,0,1-38.32-37.55,107.05,107.05,0,0,1-15.09-51.35,97.27,97.27,0,0,1,13.2-51.34,108.78,108.78,0,0,1,37.24-38.13A102.1,102.1,0,0,1,225,95.49a95.07,95.07,0,0,1,13-2.87c3.48-.5,9.73-1.17,11.66,2.64a4.77,4.77,0,0,1,.22,3.94,2,2,0,0,1-.73.93,3.25,3.25,0,0,1-2.6-.1,37.06,37.06,0,0,1-7-4,33.44,33.44,0,0,1-6.12-5.14c-6.28-6.84-7.87-17-6.08-25.86,2-10,8-18.51,15.12-25.55a113.77,113.77,0,0,1,24.65-18.28,127.83,127.83,0,0,1,58.4-16.12,122.34,122.34,0,0,1,57.12,12.32,128.43,128.43,0,0,1,44.81,36.17A119.57,119.57,0,0,1,435.34,65c1.67,2.74,6,.23,4.32-2.52a131.44,131.44,0,0,0-43.28-43.27,129,129,0,0,0-59.17-19,132.68,132.68,0,0,0-63.65,12,127.74,127.74,0,0,0-27.62,17.33c-8.37,6.87-16.12,15.14-20.51,25.17-4.14,9.44-5.25,20.56-1.33,30.29a30.91,30.91,0,0,0,9.61,12.82,58.39,58.39,0,0,0,7.12,4.75c2.72,1.57,5.65,3.2,8.9,2.55,4.43-.88,6-5.84,5.24-9.8-1-5.11-5.81-7.57-10.62-8-5-.49-10.29.73-15.14,1.84a101.16,101.16,0,0,0-13.72,4.23A112.61,112.61,0,0,0,169.4,127c-12.16,14.86-20.66,32.81-23.34,51.9A108.47,108.47,0,0,0,153.94,236a111.06,111.06,0,0,0,35.18,45.42A99.62,99.62,0,0,0,201,289.07c2.82,1.55,5.35-2.77,2.53-4.32Z"/><path class="cls-1" d="M398.73,341.29c17.07,7.41,34.77,0,51.57-4.32,3.11-.8,1.79-5.62-1.33-4.82-8.29,2.14-16.4,5-24.84,6.52-7.53,1.32-15.75,1.4-22.88-1.7a2.58,2.58,0,0,0-3.42.9,2.51,2.51,0,0,0,.9,3.42Z"/><path class="cls-1" d="M806.43,683.65c12.9-27.62,26.1-55.1,37.76-83.27q5.07-12.25,9.7-24.67a2.51,2.51,0,0,0-1.74-3.07,2.55,2.55,0,0,0-3.08,1.74c-10.61,28.55-23.29,56.25-36.2,83.81q-5.37,11.46-10.75,22.93a2.56,2.56,0,0,0,.89,3.42,2.52,2.52,0,0,0,3.42-.89Z"/><path class="cls-1" d="M867.81,541a410.92,410.92,0,0,0,7.82-49.82,347.19,347.19,0,0,0,1.11-50.37c-.49-9.55-1.43-19-2.76-28.51a2.52,2.52,0,0,0-3.08-1.75,2.56,2.56,0,0,0-1.74,3.08,321.65,321.65,0,0,1,3,49.24,367.08,367.08,0,0,1-4.08,49.32Q866,526,863,539.64c-.69,3.14,4.13,4.47,4.82,1.33Z"/><path class="cls-1" d="M846.07,561.64c2-5.59.29-11.93-1.7-17.27C842,538,838.78,532,836.09,525.68s-4.12-13.08-6.38-19.57a46.37,46.37,0,0,0-4.47-9.67,112.56,112.56,0,0,0-7.46-9.67q-9-11.22-18.43-22.08a2.52,2.52,0,0,0-3.54,0,2.54,2.54,0,0,0,0,3.53q8.07,9.3,15.83,18.86c4.61,5.68,9.7,11.19,12.41,18.09,2.51,6.4,3.83,13.19,6.3,19.6,2.37,6.12,5.49,11.91,8,18,2.26,5.37,4.89,12,2.88,17.58a2.53,2.53,0,0,0,1.74,3.08,2.56,2.56,0,0,0,3.08-1.75Z"/><path class="cls-1" d="M830,573.79c-5.88-9.88-11.2-20.63-19.76-28.53-4.07-3.75-9-6.76-14.68-7-4-.19-8,1.15-11.55,2.83-4,1.85-7.76,4.07-11.6,6.14l-27,14.57c-2.84,1.53-.31,5.85,2.52,4.32l22.86-12.34c3.83-2.07,7.66-4.15,11.5-6.21,3.36-1.81,6.89-3.71,10.73-4.22,4.8-.63,9.1,1.51,12.76,4.67a60.32,60.32,0,0,1,10.65,12.85c3.29,5,6.17,10.31,9.24,15.48,1.64,2.76,6,.25,4.32-2.52Z"/><path class="cls-1" d="M812.57,587.35a42.58,42.58,0,0,0-11.08-8.22c-4.13-2.16-8.75-3.85-13.46-3.06-5.27.89-10,3.73-14.08,7.13a63.56,63.56,0,0,0-6.12,6.27c-2,2.27-4.18,4.43-6.38,6.53-4.94,4.69-10.15,9.11-15,13.91-2.29,2.27,1.25,5.81,3.53,3.54,4-4,8.34-7.76,12.53-11.62,2-1.89,4.06-3.8,6-5.79s3.84-4.3,5.84-6.38a29.73,29.73,0,0,1,12-8,12.49,12.49,0,0,1,5.43-.7,20.93,20.93,0,0,1,5.81,1.89A38.55,38.55,0,0,1,809,590.88c2.21,2.35,5.74-1.19,3.53-3.53Z"/><path class="cls-1" d="M869.83,408.41c-4.27.6-8.19,2.29-12.14,3.93a17.52,17.52,0,0,0-5.15,2.88,13.22,13.22,0,0,0-3,3.93c-3.49,6.76-2.4,15-1.91,22.3,1.24,18.12,3.9,36.21,3.29,54.41A107.48,107.48,0,0,1,845.82,526c-1,3.06,3.82,4.38,4.82,1.33,5.59-17,5.94-35,4.74-52.68-.61-8.87-1.54-17.7-2.28-26.55-.37-4.43-.69-8.86-.89-13.3a36.09,36.09,0,0,1,.49-9.9c.69-3,2.14-5.81,5-7.2a70.28,70.28,0,0,1,6.74-2.72,32.42,32.42,0,0,1,6.72-1.75,2.51,2.51,0,0,0,1.74-3.08,2.56,2.56,0,0,0-3.07-1.74Z"/><path class="cls-1" d="M788.84,599.82c0,.33-.23.85,0,0-.05.17-.06.37-.1.54-.12.48-.3.93-.46,1.39.28-.81,0,0-.11.21s-.23.47-.36.7c-.29.56-.61,1.1-1,1.63s-.71,1.06-1.08,1.58c-.18.25-.36.5-.55.74s-.22.31-.34.46c.36-.48,0,0-.09.11q-1.52,1.9-3.14,3.72c-5.26,5.91-11,11.35-16.79,16.79-5.95,5.63-12,11.21-17.68,17.09-2.43,2.5-4.81,5-7,7.76a35.06,35.06,0,0,0-4.55,6.73c-2,4.15-1.45,8.76-.32,13.12,1.88,7.18,6,13.54,10.08,19.65,1.78,2.66,6.11.16,4.32-2.53-3.53-5.28-7.17-10.73-9.11-16.83a26.87,26.87,0,0,1-1.26-9c0-.67-.1.27,0,0s.09-.44.15-.65.11-.38.17-.57.44-1,.07-.23a25.21,25.21,0,0,1,1.66-3c.33-.51.68-1,1-1.51l.61-.81c.06-.09.46-.6.08-.11l.36-.46c2.1-2.64,4.39-5.12,6.73-7.54,11.14-11.56,23.6-21.82,34.38-33.73A64.47,64.47,0,0,0,791.1,607a14.6,14.6,0,0,0,2.74-7.18c.13-3.22-4.87-3.21-5,0Z"/><path class="cls-1" d="M704.17,720.16c26.1-12.7,54.16-26.11,84-22.33A65.45,65.45,0,0,1,810,704.5c2.86,1.48,5.39-2.83,2.53-4.31-13-6.74-27.85-8.85-42.34-7.69-15.45,1.25-30.21,6.07-44.4,12.1-8.18,3.47-16.17,7.35-24.16,11.24a2.52,2.52,0,0,0-.89,3.42,2.55,2.55,0,0,0,3.42.9Z"/><path class="cls-7" d="M704.52,755.2a152,152,0,0,1,81-21.36,145.9,145.9,0,0,1,23.5,2.37,2.56,2.56,0,0,0,3.08-1.74,2.54,2.54,0,0,0-1.75-3.08,154.88,154.88,0,0,0-43.57-1.8,157.52,157.52,0,0,0-42.6,10.35A155.72,155.72,0,0,0,702,750.88c-2.76,1.65-.24,6,2.53,4.32Z"/><path class="cls-1" d="M810.07,747.84q3.4,30.7,4.88,61.6,1.47,30.7,1,61.47t-2.86,61.73q-2.39,30.61-6.67,61.06-4.33,30.6-10.59,60.88c-.51,2.48-1,5-1.57,7.44-.67,3.14,4.15,4.48,4.82,1.33q6.48-30.21,11.06-60.79,4.61-30.73,7.28-61.73,2.66-30.78,3.37-61.7t-.5-61.79q-1.23-31-4.42-61.93-.39-3.79-.81-7.57a2.57,2.57,0,0,0-2.5-2.5,2.51,2.51,0,0,0-2.5,2.5Z"/><path class="cls-1" d="M736.38,375.27l-40,86.41-40,86.41c-6.08,13.14-12.85,26.46-14.75,41-1.3,9.94-.12,21.93,7.47,29.28,5.36,5.19,12.47,8.4,19.33,11.08a208.21,208.21,0,0,0,26.22,7.91c9.06,2.22,18.18,4.11,27.3,6,7.29,1.54,14.63,3,21.78,5.13,1.28.38,2.55.79,3.8,1.25A2.5,2.5,0,1,0,748.9,645c-6.16-2.27-12.69-3.6-19.08-5-8.73-1.9-17.48-3.66-26.18-5.64-8.95-2-17.88-4.25-26.6-7.11-7.36-2.42-14.43-5.07-20.88-9.54A22.61,22.61,0,0,1,652.9,615c-.51-.48-1-1-1.45-1.49-.22-.24-.42-.49-.62-.73-.41-.5.3.42-.07-.09l-.32-.45c-2.88-4.16-4-9.69-4.19-14.66-.6-13.7,5.23-27,10.86-39.16q19.68-42.6,39.4-85.17l39.41-85.18,4.77-10.31a2.57,2.57,0,0,0-.89-3.42,2.51,2.51,0,0,0-3.42.89Z"/><path class="cls-1" d="M850.81,479.93c-5.88,15.25-12.33,30.18-19.39,44.92a2.57,2.57,0,0,0,.89,3.42,2.53,2.53,0,0,0,3.43-.89q10.86-22.69,19.89-46.12a2.53,2.53,0,0,0-1.74-3.08,2.57,2.57,0,0,0-3.08,1.75Z"/><path class="cls-1" d="M742.94,376c23.44-3.71,47.28-.43,70.11,5.32,11.76,3,23.34,6.57,34.86,10.33,5.78,1.88,11.54,3.8,17.3,5.71l4.31,1.42a18.72,18.72,0,0,1,3.73,1.37,9.92,9.92,0,0,1,3.76,3.95,13.31,13.31,0,0,1,1.31,6.45,12.94,12.94,0,0,1-1.39,5.51c-2,4.17-4.7,8.25-5.89,12.74-.82,3.11,4,4.44,4.82,1.33,1-3.86,3.48-7.53,5.24-11.25a19.32,19.32,0,0,0,2.08-6.14,21.77,21.77,0,0,0-.35-7.11c-1-4.48-4.18-8.91-8.58-10.56-3-1.11-6.06-2-9.07-3l-8.87-2.94c-23.87-7.9-48-15.59-73.1-18.55a152.12,152.12,0,0,0-41.6.58,2.52,2.52,0,0,0-1.75,3.08,2.56,2.56,0,0,0,3.08,1.74Z"/><path class="cls-1" d="M846.57,523.63a36.14,36.14,0,0,1-1,4.24,29,29,0,0,1-1.45,3.84,32.9,32.9,0,0,1-2.09,3.82c-.39.61-.8,1.21-1.23,1.79-.26.36-.16.23-.44.58l-.78.94a2.55,2.55,0,0,0,0,3.53,2.51,2.51,0,0,0,3.53,0A35.76,35.76,0,0,0,851.39,525a2.56,2.56,0,0,0-1.75-3.08,2.53,2.53,0,0,0-3.07,1.75Z"/><path class="cls-1" d="M864.09,537.3c.19,3-1.06,5.77-2.22,8.48L857.94,555l-7.87,18.36a2.58,2.58,0,0,0,.9,3.42,2.51,2.51,0,0,0,3.42-.9l8.26-19.27c1.34-3.13,2.69-6.26,4-9.39s2.65-6.37,2.42-9.87a2.56,2.56,0,0,0-2.5-2.5,2.51,2.51,0,0,0-2.5,2.5Z"/><path class="cls-1" d="M791.11,465.08c-5.28,2.48-7.9,8.32-8.08,13.9-.2,6.1,2,12.19,4.52,17.67,4.68,10.31,11.66,19.39,16.24,29.76a54.86,54.86,0,0,1,4.6,20.54c.09,3.21,5.09,3.22,5,0a59.27,59.27,0,0,0-3.49-18.64,94.74,94.74,0,0,0-7.34-15C797.14,504,790.68,494.7,788.48,484c-1.1-5.35-.36-12,5.15-14.57a2.53,2.53,0,0,0,.9-3.42,2.57,2.57,0,0,0-3.42-.9Z"/><path class="cls-1" d="M742.87,564.53A18.24,18.24,0,0,0,750.24,579c5.1,3.65,12,0,17-2.16,2.57-1.13,5.19-2.12,7.76-3.24a64.74,64.74,0,0,1,7.34-3,11.54,11.54,0,0,1,3.4-.57,5.33,5.33,0,0,1,2.43.6,16.6,16.6,0,0,1,4.3,3.85c3.14,3.6,5.89,8.23,10.25,10.51,2.85,1.49,5.38-2.82,2.52-4.32-3.33-1.74-5.78-5.59-8.25-8.56-2.74-3.3-5.87-6.58-10.38-7-5.24-.52-10.23,2.56-14.88,4.49-2.6,1.07-5.2,2.12-7.77,3.24a41.74,41.74,0,0,1-7.52,2.58,3.92,3.92,0,0,1-3.52-.63,11.45,11.45,0,0,1-2.56-2.64,13.58,13.58,0,0,1-2.5-7.6c-.06-3.22-5.06-3.23-5,0Z"/><path class="cls-1" d="M747.61,609.4c-3.13,3.52-6.24,7.67-5,12.67s6.27,6.34,10.8,6.08c9.17-.53,17.53-4.84,24.84-10.16,4.19-3,8.14-6.39,12-9.8a2.51,2.51,0,0,0,0-3.53,2.54,2.54,0,0,0-3.53,0c-5.79,5.05-11.7,10.08-18.47,13.8a39.83,39.83,0,0,1-10.2,4,27.79,27.79,0,0,1-5.45.72c-1.36,0-3.08.06-4.23-.82s-1.22-2.74-.83-4.09c.6-2.08,2.2-3.77,3.6-5.35,2.13-2.39-1.39-5.94-3.53-3.53Z"/><path class="cls-1" d="M752.67,393.07c-1-.54-2.09.51-2.74,1.44l-1.68,2.39A5.22,5.22,0,0,0,747,400a4.06,4.06,0,0,0,1.21,2.46c2.68,3,7,4,11,3.56a4.14,4.14,0,0,0,2.07-.68,4.39,4.39,0,0,0,1.09-1.43,25.19,25.19,0,0,0,1.32-2.84,5.51,5.51,0,0,0,.5-2.2,4.78,4.78,0,0,0-1.26-2.85,10,10,0,0,0-9.42-3.42"/><path class="cls-4" d="M740.76,261.83l-18.08,56.44-5.17,16.13,4.92.66c-1.76-13.15-16.81-20.86-28.69-15.2a14.39,14.39,0,0,0-8.35,14.2,13.18,13.18,0,0,0,3.22,7.63c2.32,2.57,5.75,3.62,9.11,3.87,7.85.57,16.17-2.19,22.63-6.53,2.65-1.79.15-6.12-2.53-4.32a33.87,33.87,0,0,1-16.14,5.79c-2.55.21-5.48.32-7.79-1a6.7,6.7,0,0,1-3.24-4.3A9.17,9.17,0,0,1,694.71,325,14.88,14.88,0,0,1,708,324c4.57,1.8,8.73,6,9.41,11a2.5,2.5,0,0,0,4.91.67l18.07-56.45,5.17-16.12c1-3.07-3.84-4.39-4.82-1.33Z"/><path class="cls-4" d="M741.25,263.21c-1.09,8.07,3.33,15,8.8,20.56,4.92,5,11.31,9.51,13.59,16.42,1.13,3.43,1.25,7.12-.77,10.24-1.75,2.71,2.58,5.22,4.32,2.53,4.06-6.29,2.19-14.63-1.89-20.42-4.44-6.29-11.16-10.51-15.58-16.78-2.26-3.2-4.19-7.18-3.65-11.22a2.59,2.59,0,0,0-1.75-3.08c-1.16-.32-2.89.4-3.07,1.75Z"/><path class="cls-4" d="M712,327.56a15.15,15.15,0,0,0-9.84,0,10.22,10.22,0,0,0-6.07,6.32A2.57,2.57,0,0,0,697.8,337a26.88,26.88,0,0,0,8.67,1.88,24.32,24.32,0,0,0,4-.12,8.92,8.92,0,0,0,4.35-1.21c2.46-1.78,1.91-5.28.51-7.56a10.73,10.73,0,0,0-5.9-4.51,13.87,13.87,0,0,0-8.45.3c-2.68.89-5.7,2.21-6.49,5.19a9,9,0,0,0,2,7.68c1.84,1.86,5.06,2.19,7.54,1.92a14.17,14.17,0,0,0,7.19-2.78c2.22-1.69,4.31-4.16,3.42-7.14a11.11,11.11,0,0,0-5-5.83,14.38,14.38,0,0,0-7.82-2c-2.75.08-6.11.73-8.3,2.51a9.54,9.54,0,0,0-3,7.48c.24,3.44,3.8,4.58,6.55,5.6a13.44,13.44,0,0,0,8.69.49c2.43-.77,5.36-2,7.1-3.94a6.51,6.51,0,0,0,.56-7.91c-1.51-2.39-4.14-3.68-6.72-4.58a13.26,13.26,0,0,0-8.75-.11,21.43,21.43,0,0,0-7.4,4.31,7.29,7.29,0,0,0-1.92,7.16c1.37,5.54,7.25,7.47,12.36,7.28,4.87-.19,10.76-1.86,13.13-6.57,1.52-3,.35-5.48-1.58-7.89a8.4,8.4,0,0,0-3-2.54,7.87,7.87,0,0,0-4.32-.42c-5.38.65-11.51,2.36-13.33,8.17a5.89,5.89,0,0,0,2.47,7.11,14.87,14.87,0,0,0,7,1.77A15.91,15.91,0,0,0,713.81,335c2.34-3,.2-6.38-3.21-6.92a33.6,33.6,0,0,0-4.48-.41c-1.5,0-3.11,0-4.24,1.13a3.2,3.2,0,0,0,0,4.39,7.09,7.09,0,0,0,3.78,1.73,22.83,22.83,0,0,0,4.2.58c1.43.07,3.22.17,4.49-.61a3.52,3.52,0,0,0,1.55-3.88,4.61,4.61,0,0,0-3.27-3,11.27,11.27,0,0,0-7.21.15,12,12,0,0,0-5.89,4.54,2.54,2.54,0,0,0,.4,3c2.61,2.87,6.54,3.46,10.21,2.9,3.07-.47,6.76-1.57,8.61-4.27a5.05,5.05,0,0,0,.51-5.22,5.22,5.22,0,0,0-4.49-2.25,7.27,7.27,0,0,0-7.08,5.45,2.63,2.63,0,0,0,1.15,2.82,5.16,5.16,0,0,0,7.48-1.93c.69-1.54-.07-4-2.16-3.76l-1.08.1a2.57,2.57,0,0,0-2.5,2.5,2.52,2.52,0,0,0,2.5,2.5l1.08-.1L712,330.72c-.22.47-.23.45-.64.13l1.15,2.83a2.24,2.24,0,0,1,2.25-1.78c-.12-.09,0-.08.28,0,.6.26.51,0-.26-.79,0,0-.18.38-.1.31a6.55,6.55,0,0,1-1.39,1.1c-2.84,1.46-7.45,2.27-9.84-.35l.39,3a6.78,6.78,0,0,1,6.4-2.69c.23,0,.49.15.72.18l.34.11c.8.37,1.07-.4.78-2.33a4.64,4.64,0,0,0-1.34,0c-.45,0-.89,0-1.34-.05a15,15,0,0,1-2.2-.32c-.44-.1-.87-.21-1.3-.34-.84-.25-.49-.42-.22.12l.34,1.26,0,.14-.64,1.11c-.28.31-.83.19.07.22l1.46,0c.8,0,1.62.09,2.42.2.18,0,.78.25.92.19l-.13-.11c.25-1.24.16-1.55-.25-.95-.55.39-1,1-1.52,1.46a11.41,11.41,0,0,1-6.68,2.24c-1.16,0-5.26-.21-5.15-1.83.17-2.5,3-4,5.13-4.55a23.64,23.64,0,0,1,4.42-.77c1.56-.13,2.12.48,3,1.7.76,1,1.06,1.42.26,2.5a7.57,7.57,0,0,1-3.09,2.27c-3.42,1.42-12.4,2.45-12.9-3a2.26,2.26,0,0,1,1-2.08,18.75,18.75,0,0,1,4.27-2.52,9.62,9.62,0,0,1,8.57.68,3.85,3.85,0,0,1,2.24,2.3c.24,1.1-.8,1.68-1.63,2.14a17.19,17.19,0,0,1-4.05,1.72,8.35,8.35,0,0,1-4.76-.45c-.65-.22-1.29-.47-1.92-.74-.39-.17-.79-.33-1.16-.52l-.34-.17c-.36-.24-.42-.26-.2-.07.1.37.2-.66.17-.48a7.14,7.14,0,0,1,.18-.77,3.51,3.51,0,0,1,1-1.95A8.92,8.92,0,0,1,700.5,328a10.82,10.82,0,0,1,4.53.25,8.34,8.34,0,0,1,3.06,1.61c.54.45,1.79,1.58,1.74,2.33,0,.43-.89,1.06-1.17,1.31a8.38,8.38,0,0,1-1.47,1,8.86,8.86,0,0,1-3.72,1.13c-1,.07-2.73.16-3.45-.53a3.88,3.88,0,0,1-.66-3c.34-.57,1.54-.93,2.11-1.17a15.27,15.27,0,0,1,2.55-.77,7.83,7.83,0,0,1,4.47.31,5.35,5.35,0,0,1,2.7,2.37,2.48,2.48,0,0,1,.27.7c.07.3.08,1.41.34.1.06-.31.35-.08-.12-.06s-1,.18-1.44.23a22.83,22.83,0,0,1-11.11-1.6l1.75,3.07c1.31-4,6.5-3.8,9.76-2.85,3.09.91,4.42-3.92,1.33-4.82Z"/><path class="cls-4" d="M904.76,282.7a365.86,365.86,0,0,0-4.34,57.06q0,8.12.43,16.24l4.91-.67c-1.15-5.25-5.58-9.26-10.65-10.68a15,15,0,0,0-15,4.33,17.64,17.64,0,0,0-4.44,15.9,10.3,10.3,0,0,0,5.64,7.19,13.35,13.35,0,0,0,8.67.47A23.26,23.26,0,0,0,904.76,360a2.57,2.57,0,0,0-.9-3.42,2.52,2.52,0,0,0-3.42.89,19.36,19.36,0,0,1-9.24,9.4c-3.39,1.6-8.61,2.21-10.31-2-2.91-7.24,3.55-16.55,11.29-15.68a10.07,10.07,0,0,1,8.76,7.52c.59,2.74,5,2.16,4.91-.66a359.82,359.82,0,0,1,1.67-56.28c.57-5.25,1.26-10.47,2.06-15.69a2.58,2.58,0,0,0-1.74-3.07,2.52,2.52,0,0,0-3.08,1.74Z"/><path class="cls-4" d="M889.55,346.42a30.82,30.82,0,0,0-7.41,6.29,11.25,11.25,0,0,0-2.77,4.49,5.06,5.06,0,0,0,1.67,4.93c5,4.5,13.27,4.73,17.33-1.11s-.82-13.93-7.8-12.7a15.43,15.43,0,0,0-8.05,4.95,11,11,0,0,0-3.09,8.42,8.72,8.72,0,0,0,4.6,7.05c3.29,1.52,6.87.47,9.56-1.74a9.67,9.67,0,0,0,3.75-8.64,7.08,7.08,0,0,0-7.16-6c-5.89-.14-12.79,5.23-11.7,11.61.72,4.22,6.22,3.57,9.18,2.44a28,28,0,0,0,8.45-5.33,6.59,6.59,0,0,0,2.42-4.48,4.7,4.7,0,0,0-2.27-4.14c-3-1.82-6.4-.3-8.37,2.21-1,1.34-2.31,3-2.34,4.77,0,2.14,1.63,3.43,3.46,4.1a8.5,8.5,0,0,0,9.57-2.95,9,9,0,0,0,1.66-4.43A2.39,2.39,0,0,0,899,354a10,10,0,0,0-12.42,3.17c-1,1.41.14,3.17,1.5,3.67a8.2,8.2,0,0,0,8.45-2,2.54,2.54,0,0,0-.51-3.93,6.14,6.14,0,0,0-7.1.65,2.47,2.47,0,0,0-.51,2.73,2.56,2.56,0,0,0,2.28,1.54,14.7,14.7,0,0,0,8.59-1.77l-2.53-4.32A6.64,6.64,0,0,0,894,357.3a2.52,2.52,0,0,0,1.75,3.07,6,6,0,0,0,7.1-4.22,2.53,2.53,0,0,0-2.42-3.16l-.81,0a2.52,2.52,0,0,0-2.5,2.5,2.55,2.55,0,0,0,2.5,2.5l.81,0-2.41-3.17c-.09.29-.09.34,0,.14-.17.25-.19.29-.06.13-.06.06-.58.47-.29.28-.48.32.18,0-.37.16-.3.07-.33.08-.1,0h-.11l1.74,3.07a2,2,0,0,1,.43-.53,2.5,2.5,0,0,0-2.53-4.32,10,10,0,0,1-6.06,1.09l1.77,4.27c-.25.19.41-.1.08,0l.27-.07c-.17,0-.17,0,0,0s.58.08.28,0c.41.1,0-.05.4.18l-.51-3.92a3.1,3.1,0,0,1-3.58.67l1.49,3.67c-.16.21.4-.41.48-.49s.26-.23.1-.12c.14-.1.28-.2.43-.29a4.1,4.1,0,0,1,1.59-.69L894,358h.13a9.19,9.19,0,0,1,1.05,0h.12l.52.11.5.16c-.18-.1-.13-.08.14.05l-1.24-2.16a4.52,4.52,0,0,1-.77,1.62,3.25,3.25,0,0,1-2,1.17,4.76,4.76,0,0,1-2.14-.24l-.22-.12.09.08.29,1.12c-.12,0-.07-.15.14-.3.32-.38.54-.89.83-1.3a3.89,3.89,0,0,1,1.68-1.56c-.47.18,0,0,.06,0l-.21,0a2.48,2.48,0,0,1,.47,0c-.13,0-.41,0,0,0,.28.09.29.09,0,0l.19.11-.16-.12c.2.2.2.2,0,0,0-.05-.05-.28-.07-.31.17.28-.1.36,0,.08s-.3.48-.27.44a10.55,10.55,0,0,1-1.8,1.57,22.27,22.27,0,0,1-5.45,3.28,7.7,7.7,0,0,1-2.81.54,3.66,3.66,0,0,0-.65,0h0c.65,1,.91,1.29.76.79l0-.12c0,.26.06.22,0-.11,0,0,.09-.79,0-.41a5.61,5.61,0,0,1,2.37-3.53,7,7,0,0,1,4.71-1.47,2.08,2.08,0,0,1,2,2.5,5.11,5.11,0,0,1-.9,2.1,7,7,0,0,1-1.73,1.66,5.21,5.21,0,0,1-2.15.87,3,3,0,0,1-1-.06c-.08,0-.63-.21-.26-.05a3.43,3.43,0,0,1-.64-.37c.32.22-.1-.08-.17-.15s-.29-.29-.43-.45c.23.27,0-.06-.05-.1a7.44,7.44,0,0,1-.38-.66c0-.05-.17-.44,0-.11-.07-.21-.13-.41-.19-.62s-.1-.42-.14-.63c.07.42,0-.35,0-.37,0-.22,0-.43,0-.65,0-.45-.14.54,0-.23a7.9,7.9,0,0,1,.41-1.36,8.67,8.67,0,0,1,1.23-1.86,12.41,12.41,0,0,1,4.41-3.26,5.91,5.91,0,0,1,1.26-.39,5,5,0,0,1,.67,0c-.43,0,.35.08.37.09s.44.17.14,0a4,4,0,0,1,.57.33c.37.25-.35-.36.22.18a5,5,0,0,1,.55.58c-.2-.26.1.21.14.27a4.25,4.25,0,0,1,.31.6c-.11-.27.18.78.15.61a3.34,3.34,0,0,1-.29,1.84,5.09,5.09,0,0,1-3.95,2.82,8.2,8.2,0,0,1-5.84-1.75s-.72-.56-.52-.48,0,.23,0,.26a1.23,1.23,0,0,1,.21-.56,14.19,14.19,0,0,1,2-2.59,25.84,25.84,0,0,1,5.63-4.64c2.74-1.68.23-6-2.52-4.32Z"/><path class="cls-4" d="M907.87,285q20.34-8,41-15.17a2.56,2.56,0,0,0,1.75-3.08,2.52,2.52,0,0,0-3.08-1.74q-20.67,7.16-41,15.17a2.57,2.57,0,0,0-1.75,3.07,2.52,2.52,0,0,0,3.08,1.75Z"/><path class="cls-4" d="M907.22,293.36q20.16-8.69,40.91-15.89a2.55,2.55,0,0,0,1.74-3.07,2.52,2.52,0,0,0-3.07-1.75q-21.34,7.44-42.1,16.39a2.52,2.52,0,0,0-.9,3.42,2.57,2.57,0,0,0,3.42.9Z"/><path class="cls-4" d="M947.32,268.24l-.2,50.29L947.06,333l3.76-2.16a14.55,14.55,0,0,0-13.62-1.2,15.27,15.27,0,0,0-8.61,10.27c-1.11,4.47-.27,9.77,3.93,12.33A11.49,11.49,0,0,0,944,352c4.51-2.73,6.73-7.94,7.74-12.89A2.58,2.58,0,0,0,950,336a2.53,2.53,0,0,0-3.08,1.75c-.63,3.13-1.65,6.41-4,8.73a6.93,6.93,0,0,1-6.86,1.89,3.81,3.81,0,0,1-2.33-1.82,7.1,7.1,0,0,1-.56-4.43,10.5,10.5,0,0,1,5-7.47,9.55,9.55,0,0,1,10.07.47,2.52,2.52,0,0,0,3.76-2.16l.2-50.29.06-14.44c0-3.22-5-3.22-5,0Z"/><path class="cls-4" d="M942.8,329.93a22.07,22.07,0,0,0-6.46,3.94,11.59,11.59,0,0,0-4,6.17,7.61,7.61,0,0,0,1.83,6.75c2.1,2.14,5.22,2.17,7.81,1a11.09,11.09,0,0,0,3.09-2.22,12.71,12.71,0,0,0,2.4-2.78c1.44-2.68-.42-5.59-2.34-7.48a7.08,7.08,0,0,0-7-2,8.57,8.57,0,0,0-5.29,5.32,14.31,14.31,0,0,0-.74,3.78,20.34,20.34,0,0,0,0,3.49,3.89,3.89,0,0,0,3,3.68,7.3,7.3,0,0,0,3.69-.45c3.93-1.28,8.25-4,9.05-8.43a6.71,6.71,0,0,0-.47-4.35,5.81,5.81,0,0,0-3.18-2.62,7.74,7.74,0,0,0-6.77.89,11.41,11.41,0,0,0-4.43,5.65,3.78,3.78,0,0,0,1.16,4.69,7.35,7.35,0,0,0,3.55,1.18c5.19.56,9.19-3.72,10.59-8.3a10.29,10.29,0,0,0,.61-3.58,3.46,3.46,0,0,0-3.43-3.22c-3.19-.11-4.22,3.47-5.06,5.87-.41,1.2-.78,2.42-1.11,3.65a2.47,2.47,0,0,0,.44,2.18,2.63,2.63,0,0,0,2,1,6.94,6.94,0,0,0,5.84-2.38,7.25,7.25,0,0,0,1.77-6.49A2.52,2.52,0,0,0,946.9,333c-4.61.16-8.54,5.33-6.66,9.81a2.54,2.54,0,0,0,3.67,1.49c2-1.05,3.93-2.39,4.63-4.65a4.94,4.94,0,0,0-2.21-5.86c-2.49-1.27-5,.1-7,1.66-1.7,1.37-3.93,3.29-3.94,5.66a4.67,4.67,0,0,0,4.88,4.43c2.35,0,4.51-1.7,6.25-3.14a6.9,6.9,0,0,0,2.72-6.42,4.83,4.83,0,0,0-4.92-3.94c-3,.18-5.29,3.82-4.75,6.64s5.18,4.25,6.6,1.23a2.56,2.56,0,0,0-.9-3.42,2.53,2.53,0,0,0-3.42.89c-.28.59.11-.47,1-.71a2.32,2.32,0,0,1,.59,0c.31,0,.18,0,0,0a1.29,1.29,0,0,1,.59.34,1.83,1.83,0,0,1,.35.9c0,.19,0,0,0-.13-.17.36.08-.13.11-.19.14-.25.29-.5.45-.73-.11.16-.16.06,0,0l.07-.08a.64.64,0,0,1-.32.18c-.21.15-.1,0,0,0-.08,0-.57,0-.14,0,0,0-.49-.09-.22,0s.12,0-.17-.09l.16.09c0,.05.23.25,0,0s.13.35-.07,0,0,.07,0,0l0-.08c-.07-.16-.07-.12,0,.13,0,0,0-.46,0-.11,0,.1,0,.23,0,.34.08-.61-.28.54,0,.06-.07.14-.15.27-.23.41s-.26.35,0,.07a6.17,6.17,0,0,1-.5.53c-.11.11-.24.21-.36.32l-.13.11-.23.18-.4.28a17.2,17.2,0,0,1-1.45,1,2.64,2.64,0,0,1-.44.23c-.27.13,0,0,0,0a3.62,3.62,0,0,1-.47.13c.22,0,.18-.07,0,0,.09,0,.55.13.09,0-.07,0-.32-.15-.06,0s0,0-.05,0c.37.17.18.19.07,0,.08.11.14.25.21.35s0-.21,0,.1c0,.13,0,.26,0,.38s-.11.26,0,.1l.12-.19c.14-.24,0,0,0,.06l.32-.36c.21-.23.43-.44.64-.66a16.58,16.58,0,0,1,1.48-1.3c-.22.17.31-.21.38-.26a6.3,6.3,0,0,1,.72-.4c-.36.17.14,0,.26-.06-.35.14-.21,0,0,0-.27,0-.23-.12,0,0a3.54,3.54,0,0,1-.41-.26c.24.19,0,.05,0-.1.2.4,0-.06,0-.12,0,.1.08.58.07.2s0,.05,0,0v.19c.05-.32.06-.38,0-.2a2.86,2.86,0,0,0-.07.28c-.09.42.15-.16,0,0s-.11.19-.17.27c.2-.29,0,0-.11.09l-.24.24c-.32.3.1,0-.12.09-.57.32-1.11.67-1.68,1l3.67,1.49a4.6,4.6,0,0,1-.19-.52c0-.08-.17-.59-.07-.2s0-.11,0-.21a1.68,1.68,0,0,1,0-.55c-.12.2-.09.43,0,0,0-.15.09-.29.13-.44.16-.56-.25.42,0-.08.08-.14.15-.28.23-.41s.17-.26.26-.38c-.18.25-.18.21,0,0l.33-.32c.4-.4-.42.22.07-.06a2.11,2.11,0,0,0,.39-.23c.21-.17-.44.12,0,0,.05,0,.48-.18.53-.14l-.31,0,.37,0-2.41-1.83c.13.56,0-.3,0,0a3.84,3.84,0,0,0,0,.48c0,.44.12-.2,0,0a2.39,2.39,0,0,0-.12.46c-.08.28-.07.12,0-.05l-.23.43a3.62,3.62,0,0,1-.27.41c.19-.27.13-.17,0,0l-.35.35c-.21.19-.13.06,0,0l-.41.26c-.24.15-.33.15,0,0-.15.05-.31.09-.46.15s-.56.05,0,0a6.29,6.29,0,0,1-1,0l2.41,3.17a50,50,0,0,1,1.73-5.32c.08-.21.16-.42.25-.63-.2.46,0,.1,0,0l.1-.19q.22-.36,0,0a2,2,0,0,1-.48.24,1.25,1.25,0,0,1-.94-.16l-.42-.69c-.3-.79-.45-.95-.43-.47l0-.22-.06.34c0,.27-.1.53-.17.8s-.19.75-.31,1.12l-.15.44s-.28.67-.14.35-.18.36-.16.33c-.07.14-.14.28-.22.41s-.23.4-.35.59-.45.62-.15.24a8.93,8.93,0,0,1-.78.85l-.33.3c.4-.36-.14.09-.2.13-.28.18-.58.32-.87.48s.53-.16-.12,0l-.63.19c-.09,0-.8.13-.2.06l-.43,0h-.54c-.15,0-.6-.1-.08,0a6.44,6.44,0,0,1-1-.29c.1,0,.44.19,0,0-.66-.44-.49.08.53,1.57,0-.11.06-.23.09-.34s.12-.33.17-.5c-.13.43,0,.11,0,0,.16-.32.33-.64.52-.95.1-.16.21-.3.3-.45.21-.34-.37.4.08-.1.29-.32.59-.61.9-.91.08-.08.37-.28,0,0l.43-.29a5.93,5.93,0,0,1,.82-.44c-.55.24.08,0,.17,0l.39-.09c.6-.17-.47,0,.14,0h.62c-.46,0-.21-.05,0,0s.43.1.64.18c-.11,0-.4-.2,0,0s-.11-.21.1.06c.08.1.42.45.09.08.4.45-.09-.18,0,.14s0-.48,0,.15c0,.22,0,.44,0,.67,0-.64-.1.32-.15.49s-.08.24-.13.36c.21-.58,0,0-.06.1a7.07,7.07,0,0,1-.52.82c.06-.07.34-.39,0-.05l-.39.44c-.24.24-.49.46-.74.68-.5.44.42-.26-.14.11a4,4,0,0,0-.34.23,14.37,14.37,0,0,1-1.92,1.06c-.12.05-.57.23-.08,0l-.49.19-.89.3c-.33.1-.66.18-1,.27-.65.17.32,0-.08,0q-.29,0,.15,0a1.34,1.34,0,0,1,.9.93c-.06-.15,0-.42,0,0,0-.23,0-.46,0-.69,0-.39,0-.78,0-1.16s0-.78,0-1.16,0-.52.07-.77c-.05.42,0-.28.06-.35.09-.42.2-.82.32-1.23s.08-.23,0-.11a4.48,4.48,0,0,1,.29-.58c.07-.13.15-.24.23-.37.34-.56-.21.18.06-.1.13-.13.24-.27.37-.4s.5-.42.15-.16c.17-.13.36-.22.54-.35s.44-.21,0,0a4,4,0,0,1,.49-.17c.18,0,.57,0,0,0h.42c.58,0-.35-.18.19,0a2.67,2.67,0,0,0,.4.13c-.52-.18.14.11.26.18s.48.35.1.05c.12.09.23.19.33.28a9.6,9.6,0,0,1,.76.81c.46.53-.13-.24.09.11.1.16.21.3.31.46a5,5,0,0,1,.31.49,2.68,2.68,0,0,1,.18.33c-.09-.22-.1-.19,0,.09,0-.15,0-.25,0-.41l.07-.21c-.14.21-.15.24,0,.1s-.25.26-.24.25l-.33.36-.86.88c-.18.17-.35.34-.54.5s-.6.48-.25.22a6.42,6.42,0,0,1-1.15.7c-.37.18.5-.1-.2.07-.24.06-.47.14-.72.18.52-.08-.26,0-.31,0-.48,0,.2.12-.29-.06s-.12,0,0,0a2.27,2.27,0,0,1-.34-.19c.22.18.27.22.13.1a2.19,2.19,0,0,0-.34-.34c.35.29.06.09-.07-.12s-.31-.68-.09-.11a5.22,5.22,0,0,1-.18-.56l-.09-.39c.14.61,0-.06,0-.23s0-.33,0-.49c0,.61,0,0,.06-.19a5.2,5.2,0,0,1,.21-.67c-.15.4.07-.15.13-.26a8.32,8.32,0,0,1,.69-1.09c.25-.36-.38.4.12-.15.16-.18.31-.36.48-.53a14.22,14.22,0,0,1,1.05-1l.37-.32c.24-.18.26-.21.08-.07l.3-.22c.37-.27.74-.52,1.13-.76s.85-.51,1.3-.73c.14-.08.29-.15.44-.22l.45-.21.09,0a2.55,2.55,0,0,0,1.74-3.07,2.52,2.52,0,0,0-3.07-1.75Z"/><path class="cls-4" d="M947.7,328c-4.38-3.19-10.79-2.76-15.16.25-4.75,3.27-7.07,9-7.07,14.66,0,5.81,2.39,12,8.71,13.17a19.54,19.54,0,0,0,9.25-.19,12.38,12.38,0,0,0,6.59-5.73A27.67,27.67,0,0,0,953.09,330c-.7-3.14-5.53-1.81-4.83,1.33A22.69,22.69,0,0,1,947,345.06a13.13,13.13,0,0,1-3.47,5.19c-1.7,1.33-3.92,1.27-6,1.19s-4.2-.29-5.47-2a9.93,9.93,0,0,1-1.6-5.11c-.3-4,.67-8.19,3.61-11a8.75,8.75,0,0,1,11-1,2.51,2.51,0,0,0,3.42-.9,2.55,2.55,0,0,0-.9-3.42Z"/><path class="cls-4" d="M912.85,287.84c5.55-6.94,15.33-7.8,23-11.14,2.56-1.11.7-5.63-1.93-4.57a24.68,24.68,0,0,1-4.83,1.39l1.92,4.57a56.4,56.4,0,0,1,15.69-4.49,2.59,2.59,0,0,0,2.5-2.5,2.55,2.55,0,0,0-2.5-2.5,10.39,10.39,0,0,0-6,1.34c-2.41,1.34-.78,5.59,1.93,4.57l4.33-1.64-1.92-4.57-.92.57c-2.72,1.71-.21,6,2.52,4.32l.92-.58A2.51,2.51,0,0,0,945.7,268l-4.33,1.65,1.92,4.57a5.67,5.67,0,0,1,3.43-.66v-5a64.52,64.52,0,0,0-18.21,5.17,2.48,2.48,0,0,0-1,3.13,2.54,2.54,0,0,0,3,1.44,24.68,24.68,0,0,0,4.83-1.39l-1.93-4.56c-8.21,3.56-18.06,4.46-24,11.91a2.58,2.58,0,0,0,0,3.54,2.53,2.53,0,0,0,3.54,0Z"/><path class="cls-4" d="M935.44,270.88a6.2,6.2,0,0,0-2.17,2.43,2.57,2.57,0,0,0-.34,1.27,2.53,2.53,0,0,0,.34,1.26,2.49,2.49,0,0,0,2.16,1.24,19.1,19.1,0,0,0,3.2-.54,18.27,18.27,0,0,0,3-1.12,2.5,2.5,0,0,0-.6-4.57l-.66-.09a2.53,2.53,0,0,0-1.26.34c-.14.06-.28.13-.42.18l.6-.25a14.9,14.9,0,0,1-3.83,1.05l.67-.08-.72.08,2.16,3.76a4,4,0,0,1,.48-.8l-.39.51a3.75,3.75,0,0,1,.66-.66l-.5.39.12-.09a2.67,2.67,0,0,0,1.15-1.49,2.55,2.55,0,0,0-.25-1.93,2.58,2.58,0,0,0-1.5-1.15,2.44,2.44,0,0,0-1.92.26Z"/><path class="cls-4" d="M908.27,302.48q20.43-8.13,41.39-14.82c3.06-1,1.75-5.81-1.33-4.82q-20.94,6.68-41.39,14.82a2.58,2.58,0,0,0-1.75,3.07,2.52,2.52,0,0,0,3.08,1.75Z"/><path class="cls-7" d="M660.76,701.11a304.44,304.44,0,0,0-39.11,44.3,313.6,313.6,0,0,0-29.52,51c-4.25,9.15-8.38,18.47-11.72,28A176,176,0,0,0,573.82,850c-3.71,19.84-5.32,40-6.71,60.15-1.42,20.53-2.43,41.09-4.58,61.56q-.39,3.62-.82,7.22a2.52,2.52,0,0,0,2.5,2.5,2.55,2.55,0,0,0,2.5-2.5c2.44-20.16,3.53-40.45,4.86-60.71,1.31-20,2.67-40.11,5.87-59.93a209.62,209.62,0,0,1,5.76-26.25,222.66,222.66,0,0,1,10.25-26.49A324.22,324.22,0,0,1,621.73,754a290.69,290.69,0,0,1,37.08-44.12q2.72-2.65,5.49-5.25c2.35-2.2-1.19-5.73-3.54-3.53Z"/><path class="cls-7" d="M623.75,631.9c-4.88,13.67-9.16,27.55-13.1,41.52-4.26,15.14-8.11,30.39-11.69,45.71q-5.54,23.65-10.28,47.5-4.71,23.42-8.83,47Q576,835.26,572.62,857c-.26,1.7-.53,3.4-.79,5.1a2.57,2.57,0,0,0,1.75,3.07,2.51,2.51,0,0,0,3.07-1.74q3.33-21.56,7.06-43.05,4-23.29,8.6-46.49,4.71-23.85,10.1-47.55c3.55-15.49,7.36-30.93,11.57-46.26,3.88-14.12,8.1-28.17,12.88-42q.84-2.43,1.71-4.86a2.52,2.52,0,0,0-1.75-3.07,2.55,2.55,0,0,0-3.07,1.74Z"/></g></g></svg>