<?xml version="1.0" encoding="UTF-8"?>
<svg width="963px" height="1080px" viewBox="0 0 963 1080" version="1.1" xmlns="http://www.w3.org/2000/svg" xmlns:xlink="http://www.w3.org/1999/xlink">
    <title>Group 2</title>
    <g id="PPT" stroke="none" stroke-width="1" fill="none" fill-rule="evenodd">
        <g id="4" transform="translate(-254.000000, -84.000000)" fill-rule="nonzero">
            <g id="Group-2" transform="translate(254.000000, 84.000000)">
                <g id="Group" opacity="0.5" transform="translate(0.000000, 340.000000)">
                    <path d="M957.522918,323.078229 C955.832182,329.888866 953.804381,336.630126 951.439516,343.302007 C951.183034,344.076732 950.896334,344.839893 950.609634,345.614618 L917.719279,345.614618 C911.886541,345.619582 907.159789,349.240544 907.153309,353.708754 L907.153309,425.538436 C906.156847,426.960692 905.145653,428.371384 904.13446,429.782076 C898.911852,437.066799 893.477834,444.270581 887.922896,451.381858 C797.347414,566.961412 671.019206,663.680438 520.091287,733 L529.027698,717.551762 C525.751628,717.378316 522.461566,717.20487 519.186251,717.031482 C447.865953,713.296616 376.303905,709.157044 306.658856,696.877082 C233.798945,684.030531 162.524322,661.748529 105.422679,624.804576 C48.3055655,587.849061 6.43451265,535.07529 0.623078137,477.976937 C-1.31472476,458.353617 1.27596039,438.622213 8.27632729,419.687589 C21.6643624,383.240848 50.9175639,350.448032 93.1210675,331.04523 C159.414862,300.576586 245.889901,306.785946 315.775884,332.132156 C385.647136,357.466804 442.522575,399.405995 498.054356,440.616656 C441.986755,366.963225 363.922733,304.542429 270.266893,258.475455 C239.233038,243.258478 206.297672,229.70658 179.912965,209.991576 C153.54299,190.288135 134.0863,162.664002 138.750964,134.669852 C144.048681,102.917711 177.995996,78.8203093 212.002994,60.238484 C225.587812,52.8150044 239.610364,45.7731054 254.07083,39.2977961 C294.870237,20.9819211 339.006136,7.16407341 385.617007,2.04164119 C448.756347,-4.90775332 516.952394,5.63775049 565.359375,37.4592708 C619.894694,73.3162963 642.264105,131.143121 640.136255,186.460764 C673.735677,149.042727 725.554335,120.401046 784.074745,119.186925 C844.829073,117.938116 902.58004,147.342958 933.00952,187.651759 C963.424994,227.948973 968.888551,277.346379 957.522918,323.078229 Z" id="Path" fill="#E6E6E6"></path>
                    <path d="M573.508189,477.99084 C609.163568,475.594464 642.100429,472.794735 676.651435,465.333319 C710.14226,458.100918 742.369027,445.993836 766.210315,426.224845 C791.853472,404.961756 805.695787,377.347525 815.462221,349.858554 C820.907471,334.532172 825.381745,318.991666 829.603456,303.445919 C834.184055,286.578588 838.254001,269.636717 841.813295,252.620303 C848.898487,218.748726 853.956677,184.677643 856.987864,150.407056 C857.354028,146.247134 857.689736,142.085738 857.994988,137.922869 C858.184271,135.354948 852.950491,135.363143 852.761813,137.922869 C850.271749,171.703838 845.792383,205.353137 839.323715,238.870768 C832.940263,271.801561 824.772849,304.589817 814.410223,336.930418 C805.631432,364.328031 794.26507,392.153408 771.75029,414.960713 C750.637261,436.348069 720.142867,450.324334 687.216306,458.680802 C653.711521,467.184023 618.384614,470.57893 583.372615,473.103359 C579.077581,473.413045 577.805673,473.708187 573.508143,473.996992 C570.179442,474.220709 570.148498,478.216589 573.508143,477.990783 L573.508189,477.99084 Z" id="Path" fill="#FFFFFF"></path>
                    <path d="M12.5167353,422.00888 C57.4448047,423.918553 101.915918,429.923969 144.989643,439.89813 C188.081811,449.851993 229.492005,463.665327 268.362425,481.051991 C305.921175,497.865629 340.788419,517.984034 372.255281,540.998184 C402.794378,563.346797 430.011955,588.217066 453.410918,615.154772 C476.91625,642.159928 496.395789,671.099918 511.484381,701.432248 C513.324303,705.144685 515.096579,708.876113 516.801209,712.626534 C517.902522,715.044709 522.953515,714.004488 521.840979,711.561761 C507.7246,680.588841 489.115085,650.92844 466.362119,623.137897 C443.61381,595.345048 416.916023,569.569981 386.757699,546.284738 C356.116455,522.638448 322.014692,501.78275 285.129973,484.132021 C207.684448,447.161879 119.900479,424.796686 28.9865021,418.872974 C23.5024054,418.520747 18.0125033,418.230968 12.5167957,418.003635 C9.15591168,417.862654 9.16622846,421.868385 12.5167957,422.008938 L12.5167353,422.00888 Z" id="Path" fill="#FFFFFF"></path>
                    <path d="M254.820059,43.9603872 C283.535774,50.9545573 310.754413,61.1409085 335.604541,74.193314 C360.997349,87.6215848 384.155997,103.372417 404.567169,121.096691 C426.076529,139.742029 445.199572,159.925349 461.673275,181.369046 C479.146598,204.010588 494.325957,227.645445 507.07772,252.065548 C520.208323,277.136641 531.252228,302.819507 540.143107,328.9599 C549.180583,355.410177 556.23983,382.233867 561.286424,409.300159 C566.3074,436.079256 569.345951,463.05447 570.38751,490.096475 C571.437442,515.954516 570.439319,541.837524 567.398635,567.603044 C564.617806,591.640908 559.539308,615.490266 552.203986,638.959302 C545.689464,660.15605 536.508885,680.819605 524.790894,700.660412 C522.076312,705.163306 519.196174,709.60409 516.150479,713.982764 C514.570284,716.254517 519.078609,718.278201 520.661718,716.00225 C533.611443,697.051115 543.951851,677.119701 551.515991,656.529806 C560.002659,633.60906 566.154335,610.218561 569.915635,586.568907 C574.085158,560.910508 576.115697,535.074714 575.994914,509.218544 C575.919854,482.05476 573.808568,454.916677 569.671475,427.938243 C565.532414,400.623181 559.387192,373.508403 551.265022,346.722805 C543.162614,319.893299 532.884623,293.476623 520.490822,267.626407 C508.545541,242.601919 494.243084,218.274826 477.6963,194.837068 C461.93654,172.471596 443.57067,151.242246 422.822628,131.407871 C403.118347,112.522681 380.622817,95.4498547 355.78617,80.5310185 C331.836955,66.1885174 305.372283,54.4975165 277.170085,45.8016738 C270.278361,43.7008969 263.291309,41.801043 256.208928,40.1021121 C252.99424,39.3275383 251.618673,43.1890398 254.820029,43.9603872 L254.820059,43.9603872 Z" id="Path" fill="#FFFFFF"></path>
                    <ellipse id="Oval" fill="#E6E6E6" cx="565.5" cy="728.5" rx="373.5" ry="11.5"></ellipse>
                </g>
                <g id="TutorialPhone" transform="translate(35.000000, 0.000000)">
                    <path d="M515.325979,227.233886 L515.325979,66.3091703 C515.320772,29.6897842 485.641575,0 449.028826,0 L73.2852313,0 C36.6724818,0 6.99328525,29.6897842 6.98807829,66.3091703 L6.98807829,129.835808 C2.80444654,131.295676 0,135.24197 0,139.673712 L0,154.576769 C0,159.010159 2.80476589,162.958323 6.98807829,164.424105 L6.98807829,205.435808 C2.80476589,206.90159 0,210.849753 0,215.283144 L0,264.812227 C0,269.243969 2.80444654,273.190263 6.98807829,274.650131 L6.98807829,298.928908 C2.80476589,300.39469 0,304.342854 0,308.776245 L0,362.342358 C0,366.775749 2.80476589,370.723913 6.98807829,372.189694 L6.98807829,963.539214 C6.98807829,981.125499 13.9729369,997.991496 26.4060648,1010.42688 C38.8391928,1022.86226 55.7021331,1029.84838 73.2852313,1029.84838 L449.028826,1029.84838 C485.643732,1029.84838 515.325979,1000.16076 515.325979,963.539214 L515.325979,346.543231 C520.052754,345.442629 523.398577,341.229249 523.398577,336.375197 L523.398577,237.401921 C523.398577,232.547869 520.052754,228.334489 515.325979,227.233886 Z" id="Path" fill="#232828"></path>
                    <path d="M134.423843,21.4113537 C134.423843,21.4113537 129.802847,55.471441 183.462989,55.471441 L341.048399,55.471441 C341.048399,55.471441 384.919573,59.5084716 387.805338,21.4113537 C387.805338,21.4113537 444.945374,23.1374672 446.680605,21.4113537 C448.415836,19.6852402 487.081317,36.4181659 487.081317,89.5315284 L487.081317,955.135022 C487.081317,955.135022 478.933274,995.769432 440.824199,1003.29642 L84.8754448,1003.29642 C84.8754448,1003.29642 32.7430605,1001.28734 32.7430605,953.154236 L32.7430605,66.6393013 C32.7430605,66.6393013 40.4007117,19.2796507 78.0854093,19.2796507 L134.423843,21.4113537 Z" id="Path" fill="#00BFA6"></path>
                    <path d="M697.148043,636.030393 L604.501779,639.935371 L604.501779,655.545852 L605.105338,985.799476 L631.086655,1005.31493 L671.23274,1010.81397 L703.19306,1006.70148 L723.572598,1010.81397 L751.553203,1006.39022 L761.436477,998.69345 C761.436477,998.69345 791.114591,991.062707 793.161032,986.610655 C794.396441,983.913013 763.162278,854.435633 734.99306,753.887162 C716.631673,688.379738 697.148043,636.030393 697.148043,636.030393 Z" id="Path" fill="#FFFFFF"></path>
                    <path d="M618.100712,621.136769 C612.791281,621.580087 607.491281,621.966812 602.17242,622.146026 C600.654093,622.20262 600.654093,624.560699 602.17242,624.504105 C607.491281,624.324891 612.791281,623.938166 618.100712,623.494847 C619.600178,623.372227 619.609609,621.014148 618.100712,621.136769 Z" id="Path" fill="#FFFFFF"></path>
                    <path d="M693.36637,628.324192 C684.256406,623.457118 674.212811,620.93869 663.990036,619.835109 C662.481139,619.67476 662.5,622.032838 663.990036,622.193188 C673.779004,623.259039 683.464235,625.711441 692.178114,630.371004 C693.51726,631.08786 694.705516,629.05048 693.36637,628.333624 L693.36637,628.324192 Z" id="Path" fill="#FFFFFF"></path>
                    <path d="M617.780071,623.475983 C623.631972,625.262268 629.712015,626.190008 635.830249,626.230218 C642.052199,626.391314 648.254145,625.459097 654.153915,623.475983 C655.631286,622.921879 657.07922,622.292228 658.491993,621.58952 C660.099284,620.978405 661.894518,621.109619 663.395907,621.947948 C664.753915,622.60821 665.951601,620.57083 664.584164,619.910568 C663.275462,619.263643 661.846038,618.897388 660.387544,618.835284 C658.981185,618.878719 657.608761,619.277865 656.398399,619.995459 C653.618126,621.251529 650.699714,622.175966 647.703381,622.749694 C641.401292,623.949697 634.947927,624.134386 628.587544,623.296769 C625.137458,622.870841 621.732138,622.138517 618.411922,621.108472 C616.959609,620.655721 616.337189,622.928908 617.780071,623.381659 L617.780071,623.475983 Z" id="Path" fill="#FFFFFF"></path>
                    <path d="M709.407829,486.443319 C709.407829,486.443319 742.518683,629.937118 745.43274,674.93869 L735.587189,686.323493 L711.510854,682.163843 L690.952135,620.353886 L709.407829,486.443319 Z" id="Path" fill="#169DA3"></path>
                    <path d="M465.089146,434.537293 C465.089146,432.65083 433.025089,453.062358 433.025089,453.062358 L441.163701,472.936245 L456.158363,495.573799 L484.940569,525.379913 L511.544306,534.236856 L533.281851,532.605066 L565.23274,532.605066 L577.096441,533.425677 L582.585053,561.882969 L590.195552,592.641747 L603.747331,638.114934 L643.355872,637.171703 L663.971174,637.171703 L682.973843,638.539389 L697.647865,638.539389 L697.89306,631.068996 L701.429537,609.714236 L706.276868,583.303755 C706.276868,583.303755 709.25694,550.243493 709.285231,549.866201 C709.313523,549.488908 710.841281,527.615371 710.841281,527.615371 L717.442705,496.337817 L632.284342,465.314934 L595.806762,459.863057 L566.043772,471.89869 L539.590925,484.886987 L516.957473,485.368035 L505.235231,483.783406 L495.729181,474.18131 L482.724377,452.751092 L471.407651,439.319476 L465.089146,434.537293 Z" id="Path" fill="#00BFA6"></path>
                    <path d="M595.542705,459.740437 L605.727758,451.80786 L617.987544,447.77083 L634.698577,448.478253 C634.698577,448.478253 651.371886,445.865502 651.852847,445.893799 C652.333808,445.922096 671.298754,444.611004 671.298754,444.611004 C671.298754,444.611004 686.887544,449.15738 687.217616,449.327162 C687.547687,449.496943 696.733096,455.929782 698.166548,457.986026 C699.6,460.042271 707.021886,468.408734 707.021886,468.408734 L713.038612,476.190393 L717.829359,486.631965 C717.829359,486.631965 719.366548,494.743755 717.169217,496.205764 C714.971886,497.667773 711.624021,499.97869 703.664591,495.602096 C703.664591,495.602096 701.891637,492.310218 695.441103,500.271092 C695.441103,500.271092 691.612278,513.947948 645.157117,486.292402 C645.157117,486.292402 611.263523,470.917729 602.926868,469.24821 L595.542705,459.740437 Z" id="Path" fill="#00BFA6"></path>
                    <path d="M596.080249,385.574148 C595.64824,386.982707 595.332823,388.424425 595.137189,389.884716 C594.95621,390.468956 595.049852,391.103759 595.391815,391.61083 C595.64873,391.834333 595.990283,391.934737 596.327252,391.885813 C596.664221,391.836889 596.963134,391.643498 597.145907,391.356157 C597.539302,390.874374 597.811007,390.304984 597.938078,389.69607 C598.096041,389.021467 598.184521,388.332458 598.202135,387.639825 C598.308342,386.928759 598.132348,386.204343 597.711744,385.62131 C597.458931,385.340614 597.049794,385.263404 596.7121,385.432664 C596.422794,385.632923 596.228443,385.943259 596.174555,386.291004 C595.750178,387.771878 595.929359,389.356507 595.410676,390.809083 L596.56121,390.969432 C596.581417,390.10292 596.821561,389.255772 597.259075,388.507598 C597.419395,388.111441 597.683452,387.564367 597.419395,387.187074 C597.042171,386.592838 595.995374,387.00786 596.259431,387.705852 C596.350893,388.016692 596.671399,388.199872 596.985587,388.120873 C597.295893,388.029549 597.476138,387.706725 597.391103,387.394585 L597.391103,387.394585 L597.33452,387.847336 L597.33452,387.847336 L596.985587,388.111441 L596.749822,388.111441 L596.40089,387.837904 L596.40089,387.885066 L596.316014,387.592664 C596.316014,387.507773 596.316014,387.649258 596.316014,387.686987 C596.316014,387.724716 596.316014,387.837904 596.25,387.90393 C596.183986,387.969956 596.155694,388.158603 596.09911,388.281223 L595.703025,389.224454 C595.438952,389.796331 595.325336,390.426204 595.372954,391.054323 C595.386599,391.341874 595.604357,391.578289 595.889775,391.615423 C596.175192,391.652557 596.446175,391.47973 596.532918,391.20524 C596.828843,390.1952 597.002973,389.153397 597.051601,388.102009 C597.09383,387.590568 597.188637,387.08484 597.33452,386.592838 C597.33452,386.592838 597.33452,386.498515 597.381673,386.451354 C597.381673,386.196681 596.881851,386.715459 596.87242,386.545677 C596.87242,386.545677 596.929004,386.677729 596.938434,386.724891 C596.986298,387.002389 597.014659,387.282902 597.02331,387.564367 C597.015604,388.0739 596.96513,388.581886 596.87242,389.082969 C596.812075,389.497627 596.69134,389.901211 596.514057,390.280873 C596.429136,390.448588 596.317675,390.601476 596.183986,390.733624 C596.153665,390.756397 596.125276,390.781635 596.09911,390.809083 C596.09911,390.875109 596.014235,390.733624 596.09911,390.809083 C596.137791,390.837626 596.178801,390.862867 596.221708,390.884541 C596.221708,390.884541 596.221708,390.818515 596.221708,390.884541 C596.179937,390.479703 596.211889,390.070644 596.316014,389.677205 C596.515694,388.416116 596.805645,387.170993 597.18363,385.951441 C597.409964,385.225153 596.240569,384.913886 596.051957,385.640175 L596.080249,385.574148 Z" id="Path" fill="#000000"></path>
                    <polygon id="Path" fill="#FFFFFF" points="458.091637 431.160524 448.538434 418.153362 440.956228 400.609258 430.658007 387.90393 427.064947 374.45345 418.907473 371.774672 420.765302 384.659214 429.101957 403.542707 430.658007 405.83476 419.869395 414.012576 424.603559 421.803668 429.101957 434.414672 433.128826 439.272314 439.268149 442.205764"></polygon>
                    <path d="M417.379715,370.99179 C417.603976,383.443818 421.985891,395.463065 429.828114,405.136769 C430.771174,406.315808 432.440391,404.646288 431.4879,403.476681 C424.072157,394.254415 419.937849,382.824929 419.737367,370.99179 C419.737367,370.340625 419.209588,369.812751 418.558541,369.812751 C417.907494,369.812751 417.379715,370.340625 417.379715,370.99179 L417.379715,370.99179 Z" id="Path" fill="#000000"></path>
                    <path d="M418.313345,372.114236 C420.871474,373.981328 423.905476,375.086585 427.064947,375.302358 C427.713857,375.297227 428.238642,374.772347 428.243772,374.123319 C428.22883,373.478445 427.709703,372.959225 427.064947,372.944279 C424.33406,372.72962 421.719101,371.748832 419.520463,370.114585 C418.957242,369.791733 418.239206,369.980724 417.907829,370.539039 C417.595614,371.103721 417.782531,371.814137 418.332206,372.151965 L418.313345,372.114236 Z" id="Path" fill="#000000"></path>
                    <path d="M652.729893,426.717904 C653.163701,432.886638 655.059253,438.979913 656.502135,444.922271 C656.689655,445.530607 657.326132,445.880213 657.940004,445.712068 C658.553877,445.543923 658.923451,444.918751 658.774911,444.299738 C658.058185,441.366288 657.322598,438.432838 656.615302,435.499389 C655.847951,432.621797 655.327381,429.683989 655.059253,426.717904 C654.946085,425.208734 652.588434,425.199301 652.701601,426.717904 L652.729893,426.717904 Z" id="Path" fill="#000000"></path>
                    <path d="M619.883096,410.748996 C619.82838,410.106239 620.10583,409.480083 620.618683,409.088908 C621.259964,408.64559 622.137011,408.626725 622.806584,408.211703 C624.085087,407.299836 624.879725,405.856039 624.966192,404.28786 C625.405309,400.556278 624.770611,396.776852 623.136655,393.393537 C622.495374,392.016419 620.467794,393.214323 621.099644,394.582009 C622.485943,397.534323 623.325267,401.401572 622.514235,404.636856 C622.421001,405.204457 622.142441,405.725192 621.722064,406.117729 C621.099644,406.579913 620.194306,406.598777 619.534164,406.994934 C618.21875,407.78449 617.446215,409.235523 617.525445,410.76786 C617.60089,412.277031 619.958541,412.286463 619.883096,410.76786 L619.883096,410.748996 Z" id="Path" fill="#000000"></path>
                    <path d="M584.103381,410.4 C584.591044,411.087322 585.417693,411.449953 586.253559,411.343231 C587.05516,411.343231 587.866192,411.211179 588.658363,411.135721 C590.412456,410.965939 592.147687,410.758428 593.892349,410.513188 C594.516763,410.334606 594.882158,409.687698 594.712811,409.060611 C594.52191,408.445936 593.88541,408.08629 593.260498,408.24 C591.89306,408.428646 590.525623,408.588996 589.158185,408.73048 L587.017438,408.919127 C586.725089,408.919127 586.43274,408.985153 586.140391,408.985153 L586.017794,408.985153 C585.876335,408.985153 585.876335,408.985153 586.017794,408.985153 C586.069558,409.027465 586.116948,409.074864 586.159253,409.126638 C585.828521,408.564031 585.104409,408.376108 584.541904,408.7069 C583.979399,409.037692 583.79151,409.761935 584.122242,410.324541 L584.103381,410.4 Z" id="Path" fill="#000000"></path>
                    <path d="M710.398043,496.620786 C707.191637,495.743581 703.33452,493.234585 699.91121,494.357031 C698.317438,494.88524 697.553559,496.243493 696.572776,497.535721 C695.550206,498.804661 694.262767,499.834799 692.800534,500.554061 C686.19911,503.93083 678.08879,501.789694 671.638256,499.092052 C664.093772,495.941659 657.067972,491.668821 649.947865,487.650655 C643.026734,483.655001 635.889381,480.046316 628.568683,476.841223 C620.34106,473.314918 611.865222,470.398751 603.209786,468.116332 C602.590886,467.967765 601.965827,468.337406 601.797713,468.95139 C601.629598,469.565374 601.979141,470.201966 602.587367,470.38952 C618.056225,474.543824 632.929724,480.661671 646.845196,488.593886 C653.955872,492.60262 660.991103,496.837729 668.403559,500.233362 C675.004982,503.251703 682.44573,505.704105 689.745018,504.110044 C693.26537,503.437548 696.42389,501.514622 698.638078,498.695895 C699.175623,497.979039 699.666014,497.035808 700.524199,496.667948 C701.541944,496.394222 702.619592,496.443664 703.608007,496.809432 C705.711032,497.347074 707.672598,498.328035 709.775623,498.903406 C710.394524,499.051973 711.019582,498.682332 711.187696,498.068348 C711.355811,497.454364 711.006269,496.817772 710.398043,496.630218 L710.398043,496.620786 Z" id="Path" fill="#FFFFFF"></path>
                    <path d="M596.56121,461.183581 C602.856257,453.139448 612.566897,448.524311 622.778292,448.723493 C625.796085,448.798952 628.795018,449.242271 631.812811,449.487511 C634.750166,449.751757 637.707897,449.685314 640.630427,449.289432 C643.563345,448.87441 646.44911,448.176419 649.363167,447.619913 C652.392267,447.043326 655.453317,446.649602 658.529715,446.440873 C669.714413,445.657991 681.446085,446.120175 690.810676,452.996332 C695.08274,456.12786 698.65694,460.127162 702.127402,464.107598 C704.767972,467.154236 707.446263,470.191441 709.841637,473.436157 C712.746263,477.378865 715.424555,481.698865 716.631673,486.49048 C717.930963,491.293805 716.881775,496.42876 713.802491,500.337118 C712.859431,501.544454 714.924733,502.714061 715.839502,501.52559 C718.719299,497.824219 719.987231,493.118759 719.357117,488.471266 C718.614662,483.958908 716.899488,479.66215 714.330605,475.879127 C711.938251,472.232992 709.284421,468.765364 706.390036,465.503581 C703.0382,461.395356 699.418379,457.513347 695.55427,453.882969 C691.485682,450.133663 686.629689,447.342653 681.342349,445.714585 C675.643249,444.187223 669.742208,443.550876 663.848577,443.828122 C657.505965,444.01023 651.192982,444.767925 644.987367,446.091878 C641.839258,446.835803 638.62114,447.243674 635.387011,447.308646 C632.208897,447.308646 629.059075,446.818166 625.899822,446.544629 C619.817343,445.941411 613.681306,446.892328 608.066548,449.308297 C602.71415,451.664177 598.043105,455.333559 594.486477,459.976245 C593.543416,461.183581 595.608719,462.353188 596.523488,461.174148 L596.56121,461.183581 Z" id="Path" fill="#000000"></path>
                    <path d="M593.930071,459.004716 C583.402119,462.530569 573.09757,466.691564 563.073132,471.464803 C558.100059,473.835459 553.208719,476.350742 548.39911,479.010655 C546.154626,480.246288 543.929004,481.566812 541.571352,482.57607 C539.008245,483.650918 536.275311,484.264024 533.498754,484.387074 C527.755516,484.717205 521.927402,484.688908 516.184164,484.49083 C513.508256,484.499773 510.838329,484.237472 508.215302,483.707948 C505.773938,483.105185 503.589519,481.736783 501.981673,479.802969 C498.998802,476.196235 496.293883,472.368301 493.890214,468.35214 C491.372242,464.418865 488.958007,460.438428 486.430605,456.524017 C480.90427,447.968908 474.698932,439.715633 466.230249,433.886463 C464.985409,433.01869 463.806584,435.065502 465.041993,435.923843 C480.696797,446.733275 487.732028,465.390393 499.067616,479.972751 C500.535763,482.067128 502.473543,483.788834 504.725979,485.000175 C506.960505,485.961333 509.350225,486.51094 511.780071,486.622533 C517.52331,487.103581 523.30427,486.980961 529.05694,486.886638 C531.810999,486.919952 534.563511,486.740202 537.289858,486.348996 C539.923834,485.831276 542.466375,484.925332 544.834342,483.660786 C549.785409,481.161223 554.566726,478.322096 559.536655,475.831965 C570.856924,470.156361 582.560633,465.280508 594.561922,461.240175 C595.985943,460.759127 595.372954,458.485939 593.930071,458.966987 L593.930071,459.004716 Z" id="Path" fill="#000000"></path>
                    <path d="M442.295374,448.864978 C449.183508,443.312795 456.888049,438.858495 465.136299,435.659738 C466.541459,435.112664 465.92847,432.830044 464.513879,433.38655 C455.881283,436.734605 447.822264,441.406056 440.626157,447.233188 C439.447331,448.176419 441.125979,449.845939 442.295374,448.893275 L442.295374,448.864978 Z" id="Path" fill="#FFFFFF"></path>
                    <path d="M436.495552,446.148472 C443.415296,439.476966 451.747045,434.447997 460.873665,431.434061 C462.307117,430.962445 461.694128,428.679825 460.251246,429.160873 C450.722265,432.282472 442.01913,437.511747 434.788612,444.460087 C433.694662,445.516507 435.363879,447.186026 436.448399,446.129607 L436.495552,446.148472 Z" id="Path" fill="#000000"></path>
                    <path d="M480.508185,524.606463 C489.457829,528.973624 498.633808,533.425677 508.601957,534.831092 C513.89237,535.458191 519.233596,535.534057 524.53968,535.057467 C529.867972,534.708472 535.177402,534.284017 540.496263,534.029345 C543.514057,533.878428 546.52242,533.76524 549.540214,533.680349 C552.558007,533.595459 555.613523,533.284192 558.480427,534.208559 C559.92268,534.680175 560.54573,532.406987 559.102847,531.935371 C556.665397,531.293199 554.137116,531.066792 551.624377,531.265677 C549.002669,531.328559 546.374674,531.41345 543.740391,531.520349 C538.4121,531.746725 533.093238,532.076856 527.774377,532.463581 C522.487829,532.983667 517.169547,533.103484 511.864947,532.822009 C506.8475,532.364819 501.914745,531.232142 497.200356,529.454672 C491.914801,527.426959 486.739665,525.122284 481.696441,522.550218 C480.338434,521.880524 479.140747,523.917904 480.508185,524.587598 L480.508185,524.606463 Z" id="Path" fill="#000000"></path>
                    <path d="M713.717616,500.620087 C709.690747,517.107773 708.80427,534.104803 707.814057,550.988646 C707.314235,559.477729 706.77669,567.966812 705.777046,576.455895 C704.758541,585.086463 703.136477,593.63214 701.47669,602.158952 C699.590569,611.742183 697.704448,621.315983 696.4879,631.012402 C696.308719,632.521572 698.66637,632.502707 698.845552,631.012402 C700.986299,613.864454 705.446975,597.05607 707.691459,579.964716 C709.935943,563.260087 710.143416,546.385677 711.60516,529.615022 C712.347742,520.069618 713.813697,510.594363 715.990391,501.270917 C716.348754,499.799476 714.10427,499.167511 713.717616,500.648384 L713.717616,500.620087 Z" id="Path" fill="#FFFFFF"></path>
                    <path d="M434.533986,462.777642 C441.723089,481.646218 452.791078,498.795873 467.02242,513.117904 C471.012499,517.142424 475.241967,520.922231 479.687722,524.436681 C480.866548,525.379913 482.516904,523.710393 481.35694,522.767162 C465.792886,510.469535 452.977963,495.046426 443.738256,477.492052 C441.121493,472.533509 438.806774,467.421305 436.806762,462.183406 C436.269217,460.777991 433.97758,461.381659 434.533986,462.805939 L434.533986,462.777642 Z" id="Path" fill="#FFFFFF"></path>
                    <path d="M455.790569,427.812052 C451.358185,420.700087 446.90694,413.550393 443.530783,405.863057 C442.71032,403.976594 442.059609,402.090131 441.163701,400.260262 C440.277247,398.607341 439.127356,397.109981 437.759253,395.827074 C435.174662,393.195954 433.04288,390.155462 431.450178,386.828646 C429.602735,382.953091 428.538725,378.750773 428.319217,374.462882 C428.234342,372.953712 425.87669,372.944279 425.961566,374.462882 C426.349499,382.000932 429.127428,389.219572 433.892705,395.072489 C435.118683,396.572227 436.589858,397.84559 437.815836,399.345328 C439.041815,400.845066 439.796263,403.042795 440.588434,405.004716 C442.237522,408.932343 444.111017,412.761893 446.199644,416.47441 C448.576157,420.747249 451.169573,424.897467 453.744128,429.057118 C454.54573,430.339913 456.57331,429.151441 455.781139,427.859214 L455.790569,427.812052 Z" id="Path" fill="#000000"></path>
                    <path d="M432.534698,403.467249 C429.328292,405.18393 426.169039,406.994934 423.104093,408.928559 C420.765302,410.390568 417.804093,412.654323 418.945196,415.833013 C419.426157,417.181834 420.623843,418.125066 421.491459,419.219214 C422.46449,420.460853 423.320065,421.790236 424.047153,423.190218 C425.495568,426.075572 426.72807,429.064378 427.73452,432.132052 C428.243772,433.556332 430.516548,432.943231 430.007295,431.50952 C428.121174,426.255721 426.17847,420.879301 422.406228,416.663057 C421.463167,415.578341 420.56726,414.59738 421.548043,413.154236 C422.359075,411.956332 423.858541,411.267773 425.065658,410.484891 C427.89484,408.73048 430.799466,407.079825 433.741815,405.504629 C435.080961,404.787773 433.892705,402.750393 432.553559,403.467249 L432.534698,403.467249 Z" id="Path" fill="#000000"></path>
                    <path d="M428.083452,433.329956 C428.998954,434.64615 430.231489,435.710215 431.667082,436.423755 C432.468628,436.914975 433.411337,437.124135 434.345374,437.017991 C435.16866,436.770897 435.804392,436.113617 436.024021,435.282445 C436.250356,434.641048 436.354093,433.961921 436.580427,433.320524 C436.822597,432.640212 437.138852,431.988608 437.523488,431.377467 C438.273088,430.189462 439.2624,429.171057 440.428114,428.387424 C440.982005,428.052739 441.169924,427.33852 440.852491,426.774498 C440.694975,426.504263 440.436549,426.307709 440.134098,426.228102 C439.831646,426.148495 439.509963,426.192361 439.239858,426.350044 C436.899821,427.907029 435.13685,430.19069 434.222776,432.848908 C434.024733,433.443144 433.949288,434.084541 433.722954,434.659913 C433.722954,434.584454 433.722954,434.820262 433.722954,434.744803 L433.638078,434.829694 C433.836121,434.754236 433.873843,434.716507 433.751246,434.725939 C433.628648,434.735371 433.157117,434.518428 433.006228,434.452402 C431.850648,433.961318 430.852333,433.161869 430.120463,432.141485 C429.779654,431.595825 429.073032,431.409838 428.507829,431.717031 C427.953938,432.051715 427.766019,432.765934 428.083452,433.329956 L428.083452,433.329956 Z" id="Path" fill="#000000"></path>
                    <path d="M432.223488,439.545852 L437.127402,442.14917 C437.491279,442.36147 437.940755,442.363482 438.306518,442.154449 C438.67228,441.945415 438.89876,441.557092 438.900658,441.135759 C438.902531,440.714425 438.679535,440.32409 438.315658,440.11179 L433.411744,437.508472 C432.849239,437.180284 432.127238,437.370319 431.79911,437.932926 C431.470982,438.495533 431.660983,439.217664 432.223488,439.545852 L432.223488,439.545852 Z" id="Path" fill="#000000"></path>
                    <path d="M557.112989,533.736943 L584.329715,534.557555 C585.848043,534.557555 585.848043,532.246638 584.329715,532.199476 L557.112989,531.378865 C555.594662,531.331703 555.594662,533.689782 557.112989,533.736943 Z" id="Path" fill="#000000"></path>
                    <path d="M611.103203,483.59476 C613.751073,491.156521 614.782386,499.190009 614.130427,507.175546 C614.060638,508.930532 613.637229,510.653349 612.885587,512.240699 C611.937674,513.795593 610.576091,515.056184 608.953025,515.881572 C605.463701,517.918952 601.823488,519.711092 598.258719,521.616419 L585.555694,528.398253 L587.168327,530.011179 C596.357853,516.961609 604.149532,502.981466 610.414769,488.301485 C610.999466,486.924367 608.971886,485.717031 608.377758,487.113013 C602.114504,501.790994 594.322693,515.768212 585.131317,528.813275 C584.40516,529.841397 585.782028,530.944978 586.74395,530.435633 L598.626512,524.087686 C602.521352,522.012576 606.510498,520.06952 610.301601,517.824629 C613.505545,516.089404 615.70132,512.942022 616.224021,509.335546 C616.814743,505.222789 616.878126,501.051432 616.412633,496.92262 C615.966184,492.156514 614.953101,487.460656 613.39484,482.934498 C612.904448,481.500786 610.631673,482.113886 611.122064,483.557031 L611.103203,483.59476 Z" id="Path" fill="#FFFFFF"></path>
                    <path d="M617.780071,623.475983 C620.917062,623.814305 624.088998,623.370348 627.012633,622.183755 C630.056628,621.1077 632.982735,619.723394 635.745374,618.052402 C638.716014,616.231965 641.526335,614.156856 644.346085,612.110044 C647.076457,610.183184 649.68434,608.088309 652.154626,605.837555 C653.097687,604.894323 654.446263,603.894498 654.983808,602.621135 C655.475424,601.332461 654.934526,599.879037 653.720107,599.225502 C651.409609,597.782358 647.976868,597.79179 645.374021,598.121921 C639.470463,598.885939 634.321352,602.196681 630.162456,606.30917 C625.447153,611.025328 621.486299,616.364017 617.29911,621.504629 C616.35605,622.674236 618.006406,624.334323 618.968327,623.174148 C622.231317,619.165415 625.362278,615.043493 628.804448,611.185677 C632.246619,607.32786 636.056584,603.639825 640.960498,601.706201 C643.411915,600.684459 646.059761,600.220519 648.712456,600.347948 C649.933593,600.363082 651.13931,600.622872 652.258363,601.111965 C653.031673,601.517555 652.84306,601.74393 652.324377,602.385328 C651.762091,603.016905 651.160478,603.612326 650.523132,604.168035 C646.061397,608.17972 641.262328,611.799398 636.179181,614.9869 C633.507926,616.75178 630.664108,618.240314 627.691637,619.42952 C624.805872,620.57083 621.552313,621.67441 618.411922,621.212227 C616.921886,620.995284 616.280605,623.259039 617.780071,623.485415 L617.780071,623.475983 Z" id="Path" fill="#000000"></path>
                    <path d="M606.755694,405.004716 L606.85,404.910393 C607.617107,404.210489 608.189082,403.323118 608.509786,402.335371 C609.427872,400.378341 609.427872,398.114235 608.509786,396.157205 C608.189366,395.16662 607.617473,394.276126 606.85,393.572751 L605.227936,392.318253 C603.997983,391.606545 602.603158,391.229321 601.182206,391.224105 L599.05089,391.516507 C597.713599,391.883283 596.494807,392.591936 595.514413,393.572751 L595.420107,393.667074 C592.416603,396.842035 592.416603,401.810891 595.420107,404.985852 L597.042171,406.240349 C598.268445,406.96086 599.665691,407.338739 601.0879,407.334533 L603.219217,407.051528 C604.558695,406.684912 605.778277,405.972547 606.755694,404.985852 L606.755694,405.004716 Z" id="Path" fill="#FFE7DE"></path>
                    <path d="M599.98452,625.560524 C606.787768,624.389557 613.646515,623.56787 620.533808,623.09869 C622.042705,622.97607 622.052135,620.617991 620.533808,620.740611 C613.450041,621.225406 606.396002,622.075444 599.399822,623.287336 C597.909786,623.570306 598.541637,625.843493 600.022242,625.560524 L599.98452,625.560524 Z" id="Path" fill="#000000"></path>
                    <path d="M619.675623,622.410131 C621.769217,625.758603 625.664057,626.701834 629.341993,627.126288 C634.236477,627.654498 639.074377,627.729956 643.817972,626.249083 C648.561566,624.76821 653.031673,622.796856 657.869573,621.655546 C668.2838,619.206136 679.121201,619.180321 689.546975,621.580087 C691.02758,621.919651 691.65,619.646463 690.169395,619.3069 C680.885872,617.171363 671.273448,616.879733 661.87758,618.448559 C657.154528,619.25419 652.521109,620.517792 648.042883,622.221485 C645.857145,623.103716 643.621366,623.85646 641.347153,624.475808 C638.844244,625.050375 636.269996,625.25063 633.708363,625.070044 C629.832384,624.871965 624.060854,624.975721 621.722064,621.221659 C620.911032,619.938865 618.892883,621.127336 619.685053,622.410131 L619.675623,622.410131 Z" id="Path" fill="#000000"></path>
                    <path d="M604.501779,639.9731 C625.117082,638.872664 645.754389,638.712314 666.413701,639.492052 C672.197805,639.71214 677.978766,640.004541 683.756584,640.369258 C685.26548,640.463581 685.26548,638.105502 683.756584,638.011179 C663.147568,636.703231 642.513405,636.335371 621.854093,636.907598 C616.063701,637.064803 610.279597,637.300611 604.501779,637.615022 C602.992883,637.699913 602.983452,640.057991 604.501779,639.9731 Z" id="Path" fill="#000000"></path>
                    <path d="M696.667082,638.133799 C703.306228,658.388122 709.794484,678.686463 716.131851,699.028821 C722.305753,718.91214 728.309905,738.845764 734.144306,758.829694 C739.915836,778.675284 745.492467,798.580611 750.874199,818.545677 C756.299941,838.711965 761.496204,858.934847 766.462989,879.214323 C771.492645,899.745328 776.283393,920.339214 780.835231,940.995983 C781.419929,943.649607 782.001483,946.306376 782.579893,948.966288 C782.900534,950.447162 785.18274,949.815197 784.852669,948.334323 C780.325979,927.520349 775.557236,906.769258 770.546441,886.081048 C765.648814,865.84559 760.524852,845.673013 755.174555,825.563319 C749.868268,805.585677 744.345077,785.664629 738.604982,765.800175 C732.814591,745.72821 726.841874,725.719127 720.686833,705.772926 C714.456346,685.556332 708.059253,665.399476 701.495552,645.302358 C700.656228,642.717904 699.807473,640.13345 698.968149,637.548996 C698.496619,636.105852 696.214413,636.729014 696.685943,638.171528 L696.667082,638.133799 Z" id="Path" fill="#000000"></path>
                    <path d="M630.143594,667.100437 C631.690214,688.543231 633.639205,709.951441 635.990569,731.325066 C638.341934,752.69869 641.092527,774.018865 644.242349,795.28559 C647.385884,816.546026 650.928648,837.746725 654.870641,858.887686 C658.812633,880.028646 663.150712,901.094148 667.884875,922.084192 C672.600178,942.948472 677.702135,963.721572 683.190747,984.403493 C683.888612,987.038253 684.592764,989.669869 685.303203,992.298341 C686.095374,995.23179 690.650356,993.986725 689.848754,991.043843 C684.265836,970.393362 679.066429,949.642271 674.250534,928.790568 C669.434638,907.938865 665.017972,887.002271 661.000534,865.980786 C656.976809,844.96559 653.342883,823.884367 650.098754,802.737118 C646.854626,781.589869 644.025445,760.38917 641.61121,739.135022 C639.16554,717.887162 637.125386,696.595284 635.490747,675.259389 C635.283274,672.542882 635.082088,669.823231 634.887189,667.100437 C634.670285,664.091528 629.954982,664.072664 630.171886,667.100437 L630.143594,667.100437 Z" id="Path" fill="#E8EFED"></path>
                    <path d="M654.729181,671.099738 C660.136062,691.888559 665.627817,712.658515 671.204448,733.409607 C676.768505,754.047511 682.426868,774.66655 688.179537,795.266725 C693.932206,815.8669 699.794899,836.5331 705.767616,857.265328 C711.715184,877.90952 717.760202,898.525415 723.902669,919.113013 C730.001127,939.6 736.197034,960.061834 742.490391,980.498515 L744.895196,988.270742 C745.338434,989.713886 747.61121,989.100786 747.167972,987.638777 C740.818031,967.114061 734.56554,946.561048 728.410498,925.979738 C722.280605,905.499039 716.241874,884.990044 710.294306,864.452751 C704.346738,843.915459 698.46204,823.255546 692.640214,802.473013 C686.849822,781.791092 681.150593,761.077729 675.542527,740.332926 C669.965896,719.695022 664.480427,699.031965 659.086121,678.343755 C658.394543,675.721572 657.712396,673.096245 657.03968,670.467773 C656.825373,669.888616 656.203294,669.57012 655.608242,669.734896 C655.013191,669.899671 654.64346,670.492809 654.757473,671.099738 L654.729181,671.099738 Z" id="Path" fill="#E8EFED"></path>
                    <path d="M635.085231,722.939738 C637.24484,759.235284 640.413523,795.464803 644.336655,831.609432 C648.259786,867.754061 652.965658,903.926987 658.13363,939.96786 C661.031969,960.228472 664.071767,980.467074 667.253025,1000.68367 C667.610124,1001.93272 668.903705,1002.66365 670.157651,1002.32489 C671.391878,1001.95515 672.115482,1000.67821 671.798577,999.42917 C666.140214,963.520349 660.896797,927.564367 656.219217,891.523493 C651.560498,855.624105 647.505338,819.649258 644.308363,783.598952 C642.516548,763.401223 641.013938,743.181485 639.800534,722.939738 C639.621352,719.93083 634.90605,719.902533 635.085231,722.939738 L635.085231,722.939738 Z" id="Path" fill="#E8EFED"></path>
                    <path d="M667.064413,999.127336 C667.34172,1001.75753 667.862639,1004.35629 668.620463,1006.89013 C668.874037,1008.31094 669.969464,1009.43274 671.38363,1009.71983 C672.6379,1009.92734 673.835587,1009.28594 675.099288,1009.25764 C677.541815,1009.20105 679.937189,1009.9462 682.370285,1010.20087 C684.760404,1010.49665 687.181175,1009.9925 689.254626,1008.76716 C690.593772,1007.90882 690.970996,1005.45642 689.254626,1004.70183 C688.075801,1004.18306 688.122954,1002.92856 688.179537,1001.76838 C688.320997,999.972739 688.320997,998.168746 688.179537,996.3731 C687.696905,992.716506 686.716465,989.143123 685.26548,985.752314 C684.887768,984.524299 683.617712,983.804332 682.370285,984.111092 C681.122322,984.464219 680.387884,985.752866 680.719929,987.006812 L683.105872,994.184803 C683.916904,996.627773 687.821174,996.335371 687.74573,993.562271 C687.68751,991.141657 687.040109,988.77174 685.859609,986.657817 C684.756228,984.658166 681.342349,985.497642 681.464947,987.855721 C681.589402,990.191054 682.142442,992.483548 683.096441,994.61869 C683.879181,996.439127 687.066726,995.976943 687.406228,994.062183 L687.74573,992.062533 L683.200178,992.062533 L685.086299,998.514236 C685.240551,999.592239 685.80051,1000.57066 686.651779,1001.24961 C687.595691,1001.82551 688.782245,1001.82551 689.726157,1001.24961 C692.027224,999.853624 691.055872,997.316332 690.376868,995.297817 C689.700721,993.246347 689.140289,991.158518 688.698221,989.044192 C688.474167,988.23206 687.833944,987.601172 687.018718,987.389178 C686.203491,987.177184 685.337114,987.416289 684.745942,988.016427 C684.154769,988.616564 683.928615,989.486558 684.152669,990.29869 L685.472954,997.042795 C685.982206,999.617817 690.348577,999.070742 690.103381,996.41083 C690.027111,995.45522 689.866158,994.50827 689.62242,993.581135 C688.933986,991.07214 684.850534,991.496594 684.991993,994.203668 C685.055213,995.573883 685.247826,996.93505 685.56726,998.268996 C686.170819,1000.79686 690.499466,1000.32524 690.197687,997.646463 L689.811032,994.222533 C689.776417,992.934815 688.740865,991.899076 687.453381,991.864454 C686.16182,991.889545 685.120815,992.930737 685.09573,994.222533 L685.09573,995.439301 L689.490391,994.25083 C688.575025,992.554827 687.464065,990.971977 686.180249,989.534672 C685.58887,988.921466 684.705269,988.688705 683.888612,988.931004 C681.644128,989.80821 681.229181,991.619214 681.059431,993.816943 L680.446441,1000.33467 L685.076868,999.702707 L683.822598,993.241572 C683.322776,990.657118 679.003559,991.213624 679.192171,993.873537 C679.324199,995.627948 679.427936,997.372926 679.49395,999.127336 C679.49395,999.966812 679.550534,1000.80629 679.559964,1001.64576 C679.559964,1001.84384 679.559964,1002.04192 679.559964,1002.24 C679.559964,1002.97572 679.993772,1002.63616 680.965125,1001.23074 C680.794869,1001.17694 680.621696,1001.13285 680.446441,1001.09869 C679.592144,1000.57941 678.848653,999.896687 678.258541,999.089607 C677.39346,998.066874 676.408779,997.151683 675.325623,996.363668 C673.533808,995.10917 671.449644,997.174847 671.864591,999.023581 C672.585069,1002.06582 674.807332,1004.53031 677.758719,1005.56017 C679.00962,1005.89299 680.296768,1005.16333 680.653915,1003.91895 C681.446085,1000.80629 679.050712,998.259563 676.391281,997.089956 C673.731851,995.920349 670.063345,996.495721 669.346619,999.721572 C668.705338,1002.63616 672.043772,1006.51284 675.099288,1004.87162 C677.871886,1003.39074 676.777936,998.344454 676.098932,995.929782 C675.760081,994.818807 674.665465,994.117771 673.514819,994.274812 C672.364173,994.431853 671.497366,995.400586 671.468505,996.561747 C671.417725,999.410626 672.038005,1002.23147 673.279181,1004.79616 C673.883147,1005.80603 675.143155,1006.20995 676.22153,1005.73939 C677.318647,1005.26874 677.901821,1004.06195 677.588968,1002.90969 C676.383239,995.989919 674.607376,989.181735 672.279537,982.55476 C671.440214,980.187249 667.498221,980.375895 667.64911,983.186725 C667.947779,988.981701 668.55851,994.756364 669.478648,1000.48559 C669.912456,1003.15493 674.118505,1002.45694 674.109075,999.853624 C674.109075,989.478079 672.383274,979.244017 670.685765,969.057118 L666.375979,970.868122 C667.286741,972.856933 667.921326,974.960963 668.2621,977.121747 C668.827936,979.687336 669.403203,982.252926 669.969039,984.818515 C671.081851,989.849083 672.185231,994.901659 673.279181,999.976245 C673.835587,1002.54183 678.117082,1002.02306 677.909609,999.353712 C677.136299,989.251703 676.080071,979.187424 675.014413,969.113712 L670.383986,969.736245 C672.986833,979.875983 674.788078,990.194934 676.570463,1000.50445 C677.023132,1003.13607 681.285765,1002.5041 681.20089,999.881921 C680.880249,990.591092 679.522242,981.394585 678.173665,972.226376 L673.618683,973.471441 L677.654982,990.128908 C678.277402,992.732227 682.285409,992.156856 682.285409,989.506376 C682.142826,985.266836 681.615692,981.048999 680.710498,976.904803 L676.164947,978.159301 C677.729337,983.14508 678.889906,988.248725 679.635409,993.420786 C679.935437,995.940402 679.995433,998.482831 679.814591,1001.0138 C679.64484,1003.25869 678.786655,1006.14498 680.908541,1007.7862 C681.510363,1008.35862 682.365691,1008.57841 683.168851,1008.36701 C683.972011,1008.15562 684.608379,1007.54321 684.850534,1006.74865 C685.718149,1004.03214 685.10516,1001.0138 684.79395,998.259563 C684.463879,995.307249 684.067794,992.373799 683.624555,989.440349 C682.750652,983.692926 681.640985,977.986376 680.295552,972.320699 L675.75,973.575197 C677.301974,978.184282 678.620787,982.868648 679.701423,987.61048 L684.246975,986.355983 L681.738434,980.206114 C681.356612,978.976133 680.085676,978.253879 678.833808,978.555459 C677.585845,978.908585 676.851407,980.197233 677.183452,981.451179 L679.701423,987.61048 C680.079136,988.838496 681.349191,989.558463 682.596619,989.251703 C683.84123,988.894303 684.573636,987.609221 684.246975,986.355983 C683.170738,981.613031 681.851863,976.928443 680.295552,972.320699 C679.949194,971.065252 678.65086,970.32834 677.395641,970.67476 C676.140421,971.02118 675.403643,972.31975 675.75,973.575197 C677.013701,978.942183 678.08879,984.3469 678.937544,989.789345 C679.346204,992.373799 679.701423,994.967686 680.003203,997.571004 C680.154093,998.93869 680.304982,1000.30638 680.437011,1001.68349 C680.654838,1002.95292 680.606668,1004.25375 680.295552,1005.50358 L684.237544,1004.45659 C683.803737,1004.11703 684.237544,1004.4 684.237544,1004.55092 C684.237544,1004.70183 684.237544,1004.15476 684.237544,1004.23022 C684.331851,1003.77747 684.331851,1003.28699 684.397865,1002.80594 C684.559051,1001.55436 684.650355,1000.29476 684.671352,999.033013 C684.698336,996.507622 684.521726,993.984165 684.143238,991.487162 C683.341284,986.565563 682.210217,981.703298 680.757651,976.9331 C679.918327,973.980786 675.646263,975.235284 676.2121,978.187598 C677.021447,981.910311 677.491758,985.698736 677.61726,989.506376 L682.247687,988.883843 L678.220819,972.226376 C677.859266,970.980238 676.571562,970.248455 675.316192,970.575721 C674.084609,970.94957 673.359965,972.221033 673.665836,973.471441 C675.107621,982.214321 676.0522,991.03199 676.495018,999.881921 L681.125445,999.249956 C679.34306,988.940437 677.541815,978.621485 674.938968,968.491179 C674.297687,965.982183 670.025623,966.41607 670.308541,969.113712 C671.374199,979.187424 672.430427,989.251703 673.203737,999.353712 L677.834164,998.721747 C676.708778,993.515109 675.573962,988.311616 674.429715,983.111266 C673.854448,980.545677 673.288612,977.980087 672.713345,975.42393 C672.283601,973.016854 671.515238,970.682768 670.431139,968.491179 C669.824421,967.484785 668.567386,967.081816 667.48879,967.547948 C666.416349,968.018676 665.838913,969.193673 666.121352,970.33048 C667.762278,980.11179 669.36548,989.93083 669.384342,999.872489 L674.024199,999.249956 C673.171784,993.93996 672.614522,988.586758 672.354982,983.215022 L667.715125,983.837555 C670.04604,990.464289 671.825056,997.272467 673.033986,1004.19249 L677.343772,1002.37205 C676.501394,1000.54122 676.100835,998.538064 676.174377,996.524017 L671.54395,997.14655 C671.768349,997.897884 671.923037,998.668303 672.00605,999.448035 C672.00605,999.872489 672.062633,1000.29694 672.062633,1000.73083 C672.062633,1000.86288 671.911744,1001.82498 672.062633,1001.45712 L672.911388,1000.61764 L672.666192,1000.76856 L673.854448,1000.43843 C674.278826,1000.43843 673.675267,1001.0138 673.854448,1000.33467 C673.854448,1000.41013 673.854448,1000.86288 673.854448,1000.92891 C673.854448,1001.3062 673.439502,1000.92891 674.222242,1001.22131 C674.552313,1001.3345 676.230961,1002.16454 676.108363,1002.62672 L679.003559,1000.97607 C677.647197,1000.40129 676.672034,999.18123 676.410142,997.731354 L672.94911,1000.4007 C674.203381,1001.2779 675.070996,1002.68332 676.193238,1003.73031 C677.427289,1005.0308 679.117649,1005.80174 680.908541,1005.88087 C682.137158,1005.87071 683.259067,1005.18074 683.822598,1004.08873 C684.200323,1003.15681 684.333426,1002.14374 684.209253,1001.14585 C684.152669,998.712314 684.030071,996.269345 683.85089,993.835808 L679.220463,994.458341 L680.474733,1000.91948 C680.786186,1002.05417 681.894689,1002.77847 683.058719,1002.60786 C684.214236,1002.44199 685.080087,1001.46424 685.10516,1000.29694 L685.510676,996.024105 L685.699288,994.00559 C685.763227,993.695412 685.791702,993.37897 685.784164,993.062358 C685.708719,992.543581 686.727224,992.751092 685.124021,993.392489 L682.822954,992.788821 C683.826192,993.941059 684.690323,995.207416 685.397509,996.561747 C686.519751,998.69345 689.754448,997.627598 689.792171,995.373275 L689.792171,994.156507 L685.076868,994.156507 L685.463523,997.580437 L690.09395,996.948472 C689.867452,996.020605 689.731641,995.07292 689.688434,994.118777 L685.058007,994.750742 C685.208737,995.27183 685.312883,995.80528 685.369217,996.344803 L689.999644,995.722271 L688.679359,988.978166 L684.133808,990.232664 C684.445018,991.713537 684.803381,993.175546 685.227758,994.628122 C685.435231,995.316681 685.652135,996.00524 685.87847,996.684367 C686.202321,997.326989 686.403792,998.024271 686.472598,998.740611 L686.802669,997.55214 L687.095018,997.222009 L688.283274,996.891878 L688.038078,996.891878 L689.235765,997.222009 L689.018861,997.108821 L689.867616,997.957729 C689.428307,996.876043 689.093564,995.754769 688.867972,994.609258 L687.736299,990.742009 C687.13274,988.657467 683.605694,988.346201 683.190747,990.742009 L682.851246,992.741659 L687.161032,992.175721 C686.586327,990.782081 686.26689,989.296427 686.217972,987.789694 L681.82331,988.978166 C682.598764,990.359812 683.019966,991.912062 683.049288,993.496245 L687.679715,992.864279 L685.284342,985.686288 L680.73879,986.940786 C682.219395,990.609956 683.567972,994.486638 683.624555,998.457642 C683.624555,1000.50445 683.209609,1002.57013 683.709431,1004.58865 C684.08404,1006.37355 685.254966,1007.88873 686.887544,1008.70114 L686.887544,1004.63581 C684.907117,1005.89974 682.474021,1005.48472 680.286121,1005.09799 C678.862826,1004.81711 677.423457,1004.62495 675.976335,1004.52262 C675.226578,1004.49103 674.475497,1004.52575 673.731851,1004.62638 C673.068605,1004.8028 672.394416,1004.93514 671.713701,1005.02253 L672.901957,1005.34323 C673.241459,1005.48472 673.279181,1006.22987 673.118861,1005.43755 C673.062278,1005.15459 672.94911,1004.87162 672.873665,1004.58865 C672.703915,1003.94725 672.543594,1003.30585 672.402135,1002.70218 C672.139976,1001.54389 671.938515,1000.37269 671.798577,999.193362 C671.763961,997.905645 670.72841,996.869905 669.440925,996.835284 C668.140977,996.840454 667.088443,997.893179 667.083274,999.193362 L667.064413,999.127336 Z" id="Path" fill="#E8EFED"></path>
                    <path d="M680.27669,970.434236 C678.031638,963.668566 676.223524,956.765613 674.863523,949.768035 C673.854448,943.882271 672.109786,938.071965 672.468149,932.120175 C672.93968,924.23476 660.670463,924.263057 660.208363,932.120175 C659.802847,938.817118 661.764413,944.797205 662.764057,951.343231 C663.933452,958.964541 666.196797,966.340611 668.42242,973.697817 C670.732918,981.243668 682.568327,978.008384 680.248399,970.434236 L680.27669,970.434236 Z" id="Path" fill="#E8EFED"></path>
                    <path d="M651.654804,860.481747 C652.965658,872.649432 653.974733,884.58131 657.001957,896.428297 C658.407117,901.899039 658.275089,907.747074 659.369039,913.302707 C660.63274,919.66952 662.405694,925.894847 663.395907,932.308821 L668.912811,929.101834 C664.499288,925.583581 663.876868,916.660611 663.254448,911.453974 C662.867794,908.077205 657.596085,906.596332 656.775623,910.576769 L656.520996,911.812402 C655.691103,915.953188 662.047331,917.735895 662.886655,913.566812 L663.141281,912.331179 L656.653025,911.453974 C657.473488,918.565939 658.152491,928.941485 664.197509,933.77083 C665.275113,934.768197 666.877724,934.944341 668.14616,934.204828 C669.414596,933.465315 670.051092,931.983745 669.714413,930.55441 C668.771352,924.72524 667.271886,919.046987 666.045907,913.283843 C664.819929,907.520699 664.876512,901.86131 663.707117,896.249083 C662.537722,890.636856 660.877936,885.449083 660.283808,879.667074 L658.256228,860.481747 C657.803559,856.293799 651.192705,856.25607 651.654804,860.481747 Z" id="Path" fill="#E8EFED"></path>
                    <path d="M647.590214,842.305677 C650.448531,849.916878 652.238509,857.887534 652.909075,865.990218 C653.210854,869.593362 658.869217,869.631092 658.567438,865.990218 C657.898657,857.377172 656.03883,848.898505 653.041103,840.796507 C651.786833,837.410306 646.317082,838.910044 647.590214,842.305677 Z" id="Path" fill="#E8EFED"></path>
                    <path d="M645.053381,822.695895 C646.645674,831.284775 648.682276,839.785276 651.154982,848.163144 C652.013167,851.068297 656.502135,849.851528 655.700534,846.908646 C653.861566,840.155109 652.003737,833.335546 651.786833,826.289607 C651.77426,825.115645 650.903398,824.128222 649.740391,823.969258 C648.576361,823.79865 647.467858,824.52295 647.156406,825.657642 C646.955579,826.525047 647.00795,827.431884 647.307295,828.270393 C647.689099,829.499744 648.962099,830.219037 650.211922,829.911616 C651.459466,829.558713 652.191038,828.267716 651.852847,827.015895 C651.74911,826.610306 651.701957,826.582009 651.701957,826.91214 L647.07153,826.289607 C647.297865,833.76 649.202847,840.994585 651.154982,848.163144 L655.700534,846.908646 C653.227828,838.530778 651.191225,830.030277 649.598932,821.441397 C649.241622,820.191916 647.950376,819.458121 646.694306,819.790742 C645.45876,820.164628 644.735863,821.44447 645.053381,822.695895 L645.053381,822.695895 Z" id="Path" fill="#E8EFED"></path>
                    <path d="M607.698754,987.704803 C614.498221,998.080349 624.768149,1005.00367 636.603559,1008.4559 C648.438968,1011.90812 661.179715,1012.1062 673.477224,1011.42707 C680.352135,1011.04978 687.208185,1010.35179 694.054804,1009.63493 C694.631314,1009.6116 695.107746,1009.17741 695.184459,1008.60545 C695.261172,1008.03349 694.915993,1007.48906 694.366014,1007.31459 C691.314095,1006.42141 689.211961,1003.62829 689.198043,1000.44786 L687.425089,1001.46655 C699.978752,1008.75214 714.317845,1012.38493 728.825445,1011.95528 C743.490036,1011.54969 757.11726,1006.18271 769.886299,999.353712 C777.619395,995.222358 785.18274,990.723144 793.462811,987.751965 C794.877402,987.24262 794.265021,984.922271 792.840391,985.478777 C778.901957,990.487336 766.811922,999.410306 752.948932,1004.62638 C739.648087,1009.85977 725.09886,1011.05082 711.124199,1008.05031 C703.203517,1006.42429 695.602482,1003.51205 688.622776,999.42917 C688.256019,999.223842 687.80849,999.225822 687.443564,999.434389 C687.078638,999.642956 686.849725,1000.02758 686.840391,1000.44786 C686.867527,1004.68609 689.674937,1008.40313 693.743594,1009.58777 L694.054804,1007.27686 C682.106228,1008.52192 670.091637,1009.72926 658.058185,1009.26707 C646.354804,1008.80489 634.321352,1006.72035 624.183452,1000.57048 C618.383009,997.03408 613.446661,992.245083 609.735765,986.554061 C608.905872,985.290131 606.906584,986.46917 607.698754,987.742533 L607.698754,987.704803 Z" id="Path" fill="#000000"></path>
                    <path d="M595.391815,363.757205 C593.383096,365.643668 592.65694,368.209258 592.251423,370.831441 C591.845907,373.453624 591.562989,376.283319 590.421886,378.839476 C588.17331,383.911192 583.845455,387.765366 578.548754,389.4131 C577.923897,389.591882 577.555625,390.236474 577.718861,390.865677 C578.577046,393.157729 580.085943,395.025328 581.264769,397.138166 C582.407437,399.230615 583.12233,401.529589 583.367794,403.901135 C583.93363,408.749345 583.179181,413.644716 582.745374,418.474061 C582.566192,420.577467 582.151246,422.982707 582.896263,425.02952 C583.641281,427.076332 585.631139,427.80262 587.743594,428.019563 C592.957967,428.524969 598.054756,429.879049 602.832562,432.028297 C604.155244,432.520032 605.395416,433.210202 606.510498,434.075109 C607.45274,435.115398 608.194512,436.320997 608.698399,437.631092 C610.069247,440.424718 611.296818,443.286423 612.376335,446.205066 C612.904448,447.619913 615.205516,447.00742 614.64911,445.582533 C613.70605,443.092402 612.706406,440.630568 611.584164,438.215895 C610.641103,436.084192 609.698043,433.565764 607.745907,432.056594 C605.67189,430.616956 603.396538,429.491787 600.993594,428.717555 C598.616809,427.809774 596.173252,427.087611 593.684875,426.557555 C592.440036,426.29345 591.176335,426.076507 589.912633,425.906725 C588.765144,425.845055 587.623944,425.696862 586.498754,425.463406 C584.141103,424.765415 584.86726,421.32262 585.018149,419.473886 C585.395374,414.625677 586.187544,409.74917 585.81032,404.872664 C585.65119,402.345974 585.064448,399.864625 584.075089,397.534323 C582.952847,394.968734 580.962989,392.865328 579.991637,390.233712 L579.161744,391.686288 C584.604458,390.016878 589.16701,386.263788 591.855338,381.244716 C593.138199,378.722815 593.959049,375.991476 594.279004,373.180087 C594.646797,370.454148 594.910854,367.398079 597.042171,365.417293 C598.164413,364.38917 596.495196,362.729083 595.382384,363.757205 L595.391815,363.757205 Z" id="Path" fill="#000000"></path>
                    <path d="M589.874911,428.660961 C590.107854,434.810682 591.746714,440.825228 594.665658,446.242795 C595.109966,446.967042 595.973252,447.318532 596.796975,447.110568 C599.333808,446.75214 601.86121,446.22393 604.426335,446.025852 C606.949097,445.831907 609.486113,446.09716 611.914235,446.808734 C614.253025,447.478428 615.252669,443.837555 612.913879,443.16786 C610.16427,442.346296 607.289191,442.026785 604.426335,442.224629 C601.531139,442.441572 598.664235,443.035808 595.7879,443.441397 L597.919217,444.30917 C595.325039,439.475303 593.864167,434.114576 593.647153,428.632664 C593.552847,426.217991 589.780605,426.199127 589.874911,428.632664 L589.874911,428.660961 Z" id="Path" fill="#2D140B"></path>
                    <path d="M591.459253,429.972052 C591.87931,433.788563 592.904364,437.513817 594.495907,441.00786 C595.15605,442.469869 597.636299,442.083144 597.947509,440.555109 C598.334164,438.612052 597.50427,436.885939 596.938434,435.065502 C596.3788,433.275848 595.922238,431.455567 595.570996,429.613624 L591.930783,430.622882 C592.848672,434.681846 594.398471,438.571367 596.523488,442.14917 C596.996689,442.977328 598.013509,443.321887 598.89255,442.951951 C599.771591,442.582014 600.236225,441.613997 599.975089,440.696594 C599.164057,437.062009 598.205279,433.471441 597.098754,429.924891 L595.278648,432.320699 C596.863733,432.487109 598.394586,432.992125 599.767616,433.801572 C601.28154,434.493611 602.724877,435.330708 604.077402,436.301135 C605.131933,437.158468 605.985109,438.237207 606.576512,439.460961 C607.374361,440.720553 607.957559,442.103907 608.302313,443.554585 L610.688256,441.743581 C605.75605,440.479651 600.418327,439.781659 595.514413,441.526638 L596.966726,444.969432 C598.20292,444.13879 599.39294,443.24139 600.531495,442.281223 C601.55,441.422882 602.889146,440.470218 603.002313,439.027074 C603.11548,437.58393 601.898932,436.19738 600.908719,435.131528 C599.947544,434.144797 598.920382,433.224594 597.834342,432.377293 L595.552135,435.339039 C599.303905,437.787057 602.877615,440.497769 606.246441,443.45083 C606.917574,444.115608 607.976871,444.181345 608.725018,443.604643 C609.473165,443.027941 609.679434,441.986655 609.207651,441.16821 C607.180071,438.008384 603.926512,436.084192 601.663167,433.150742 L600.984164,435.735197 C600.097687,436.19738 600.474911,435.574847 600.625801,435.838952 C600.723367,435.931118 600.827366,436.016224 600.937011,436.093624 C601.304804,436.423755 601.653737,436.791616 601.983808,437.150044 C602.604258,437.690533 603.094323,438.364495 603.41726,439.121397 C603.41726,439.177991 603.558719,439.489258 603.41726,439.49869 L603.511566,439.149694 C604.313167,438.810131 604.51121,438.649782 604.124555,438.678079 C603.646225,438.606922 603.160003,438.606922 602.681673,438.678079 L599.343238,438.564891 C598.578692,438.56428 597.889407,439.025354 597.597994,439.732313 C597.306581,440.439273 597.470695,441.25225 598.013523,441.790742 C598.895724,442.679085 600.227326,442.945864 601.383558,442.465909 C602.539789,441.985955 603.291198,440.854514 603.285231,439.602445 C603.285231,437.168908 599.512989,437.168908 599.512989,439.602445 C599.572487,439.359644 599.74434,439.159861 599.975494,439.064772 C600.206649,438.969683 600.469308,438.990723 600.682384,439.121397 L599.343238,442.337817 C601.042653,442.488624 602.750203,442.526437 604.454626,442.451004 C606.651957,442.224629 607.585587,440.140087 607.01032,438.140437 C606.394343,436.533367 605.393777,435.101878 604.096263,433.971354 C602.691103,432.565939 601.021886,431.462358 599.032028,432.499913 C598.598703,432.751997 598.283537,433.166244 598.156135,433.651165 C598.028734,434.136086 598.099579,434.651785 598.353025,435.084367 C599.550271,436.577322 600.875591,437.962848 602.313879,439.225153 C603.669645,440.355496 604.871296,441.658843 605.888078,443.101834 L608.849288,440.809782 C605.246489,437.635999 601.416924,434.729416 597.391103,432.113188 C595.62758,430.962445 593.430249,433.707249 595.108897,435.074934 C595.948221,435.754061 596.787544,436.44262 597.570285,437.197205 C598.098399,437.715983 599.154626,438.593188 599.267794,439.310044 L599.267794,438.300786 C599.267794,438.300786 599.758185,437.998952 599.192349,438.413974 C599.032808,438.542568 598.881612,438.681189 598.73968,438.828996 C598.315302,439.206288 597.890925,439.574148 597.457117,439.932576 C596.670575,440.576854 595.852229,441.181281 595.00516,441.743581 C594.193989,442.22552 593.863655,443.232818 594.231851,444.101659 C594.596023,444.971488 595.546453,445.438733 596.457473,445.195808 C600.757829,443.658341 605.312811,444.299738 609.66032,445.403319 C610.716548,445.676856 612.206584,444.846812 612.046263,443.582882 C611.693843,441.59157 610.998209,439.676634 609.990391,437.923493 C609.18423,436.220318 608.015908,434.713778 606.567082,433.50917 C604.997125,432.314258 603.298491,431.29869 601.502847,430.481397 C599.550712,429.538166 597.457117,428.594934 595.250356,428.547773 C594.661608,428.54733 594.106424,428.821883 593.749338,429.290064 C593.392253,429.758246 593.274231,430.366346 593.430249,430.934148 C594.54306,434.480699 595.501839,438.071266 596.306584,441.705852 L599.748754,440.253275 C597.794455,436.9508 596.374888,433.359854 595.542705,429.613624 C595.264056,428.608225 594.223278,428.019118 593.218061,428.297817 C592.212843,428.576516 591.623843,429.617483 591.902491,430.622882 C592.212791,432.252574 592.609436,433.864628 593.090747,435.452227 C593.317082,436.225677 593.562278,436.989694 593.826335,437.753712 C594.113895,438.311367 594.26881,438.927911 594.279004,439.555284 L597.730605,439.102533 C596.41581,436.210004 595.56297,433.129037 595.203203,429.972052 C595.173639,428.942684 594.346263,428.115159 593.317082,428.08559 C592.275406,428.08559 591.430961,428.930188 591.430961,429.972052 L591.459253,429.972052 Z" id="Path" fill="#2D140B"></path>
                    <path d="M588.215125,368.077205 C588.333054,372.892608 589.962926,377.548818 592.873843,381.386201 C593.42409,382.254947 594.551663,382.551297 595.457829,382.065328 C595.88956,381.811673 596.202733,381.39673 596.32833,380.911942 C596.453928,380.427154 596.381642,379.912311 596.127402,379.480873 C593.568188,376.217735 592.117721,372.222447 591.987367,368.077205 C591.987367,367.035341 591.142921,366.190742 590.101246,366.190742 C589.05957,366.190742 588.215125,367.035341 588.215125,368.077205 L588.215125,368.077205 Z" id="Path" fill="#542A23"></path>
                    <path d="M591.770463,381.065502 L591.770463,380.971179 L591.836477,381.480524 C591.638423,379.990485 591.638423,378.480781 591.836477,376.990742 L591.770463,377.490655 C591.760784,377.424984 591.760784,377.358248 591.770463,377.292576 L591.581851,377.745328 L591.581851,377.745328 L591.289502,378.12262 L591.289502,378.12262 L590.912278,378.424454 L590.912278,378.424454 L589.969217,378.679127 L589.969217,378.679127 C590.470554,378.682026 590.952416,378.485173 591.308363,378.132052 C591.654631,377.771588 591.850272,377.292518 591.855339,376.792664 C591.855736,376.294501 591.659107,375.816403 591.308363,375.462707 C590.935842,375.134115 590.464868,374.938393 589.969217,374.906201 C589.228273,374.893114 588.541442,375.29293 588.186833,375.943755 C587.977822,376.39333 587.865379,376.881741 587.856762,377.377467 C587.800178,377.861659 587.762456,378.342707 587.743594,378.820611 C587.720008,379.944395 587.795748,381.068066 587.969929,382.178515 C588.099798,382.649735 588.407465,383.052142 588.828114,383.300961 C589.269614,383.559517 589.797195,383.627617 590.289858,383.489607 C590.762583,383.357424 591.165166,383.046127 591.4121,382.621834 L591.600712,382.178515 C591.692357,381.84834 591.692357,381.499433 591.600712,381.169258 L591.770463,381.065502 Z" id="Path" fill="#542A23"></path>
                    <path d="M588.318861,376.773799 C587.545552,370.605066 591.874199,364.898515 595.769039,360.550218 C599.83363,356.013275 605.14306,352.164891 611.36726,351.485764 C612.398463,351.460901 613.228522,350.630692 613.253381,349.599301 C613.253381,348.557437 612.408936,347.712838 611.36726,347.712838 C604.115125,348.505153 597.900356,352.532751 593.100178,357.880873 C588.592349,362.917729 583.669573,369.624105 584.546619,376.745502 C584.571478,377.776893 585.401537,378.607102 586.43274,378.631965 C587.474416,378.631965 588.318861,377.787367 588.318861,376.745502 L588.318861,376.773799 Z" id="Path" fill="#542A23"></path>
                    <path d="M594.731673,382.735022 C600.484342,382.885939 607.038612,383.017991 611.546441,387.13048 C613.328826,388.771703 616.007117,386.102358 614.205872,384.470568 C608.87758,379.603493 601.597153,379.14131 594.731673,378.962096 C592.308007,378.89607 592.308007,382.668996 594.731673,382.735022 L594.731673,382.735022 Z" id="Path" fill="#542A23"></path>
                    <path d="M591.506406,366.643493 C596.070819,372.982009 610.197865,391.865502 617.28968,392.818166 C617.28968,392.818166 624.730427,388.14917 626.418505,395.64786 C626.418505,395.64786 629.059075,409.192664 622.646263,411.258341 C622.646263,411.258341 638.819751,427.500786 654.625445,427.661135 C654.625445,427.661135 683.605694,411.079127 676.315836,388.30952 C676.315836,388.30952 684.237544,359.220262 647.929715,346.61869 C647.929715,346.61869 610.12242,332.602271 591.402669,362.35179 C590.540849,363.664533 590.582168,365.373938 591.506406,366.643493 L591.506406,366.643493 Z" id="Path" fill="#542A23"></path>
                    <path d="M593.081317,360.154061 C591.242349,362.549869 589.478826,365.398428 589.158185,368.454498 C588.837544,371.510568 590.591637,374.113886 592.779537,376.151266 C594.966249,378.059808 597.338931,379.744054 599.861922,381.17869 C602.527639,382.788472 605.259371,384.30393 608.057117,385.725066 C609.186909,386.344496 610.603785,385.971567 611.282384,384.876157 C611.922574,383.748802 611.545709,382.316454 610.43363,381.650306 C605.954093,379.377118 601.248221,376.934148 597.287367,373.821485 C595.825623,372.670742 593.590569,370.944629 593.826335,368.841223 C594.090391,366.558603 595.806762,364.294847 597.155338,362.531004 C597.8064,361.405088 597.427418,359.964696 596.306584,359.305153 C595.177424,358.680608 593.756849,359.054512 593.081317,360.154061 L593.081317,360.154061 Z" id="Path" fill="#542A23"></path>
                    <path d="M592.600356,371.057817 C593.275741,372.961579 594.524417,374.609208 596.174555,375.773974 C597.289306,376.389643 598.525425,376.753463 599.795907,376.839825 C601.053708,376.960229 602.321843,376.915836 603.568149,376.707773 C604.16085,376.544927 604.665631,376.15526 604.97331,375.623057 C605.624371,374.49714 605.24539,373.056749 604.124555,372.397205 C603.563643,372.120604 602.926907,372.037681 602.313879,372.161397 L602.153559,372.161397 L602.785409,372.076507 C601.758261,372.203868 600.719319,372.203868 599.692171,372.076507 L600.314591,372.161397 C599.996955,372.116216 599.682107,372.053234 599.37153,371.972751 L598.956584,371.850131 C598.503915,371.708646 599.380961,372.085939 598.956584,371.850131 C598.805694,371.76524 598.645374,371.689782 598.494484,371.586026 C598.343594,371.482271 598.145552,371.199301 598.579359,371.661485 C598.400178,371.472838 598.192705,371.312489 598.022954,371.104978 C597.664591,370.689956 598.296441,371.52 598.022954,371.15214 L597.81548,370.840873 C597.66572,370.613736 597.530284,370.377469 597.409964,370.13345 C597.145907,369.633537 596.910142,369.11476 596.683808,368.595983 C596.375354,368.064459 595.870887,367.675035 595.278648,367.511266 C594.664634,367.346117 594.010218,367.430902 593.458541,367.747074 C592.93111,368.064499 592.543573,368.570073 592.374021,369.161921 C592.247294,369.775907 592.33379,370.414763 592.619217,370.972926 L592.600356,371.057817 Z" id="Path" fill="#542A23"></path>
                    <path d="M647.307295,367.520699 C650.34395,367.520699 650.34395,362.804541 647.307295,362.804541 C644.270641,362.804541 644.270641,367.520699 647.307295,367.520699 Z" id="Path" fill="#542A23"></path>
                    <path d="M670.657473,371.972751 C673.25089,386.809782 675.863167,401.863755 674.627758,416.974323 C674.127175,423.537713 672.744137,430.003639 670.516014,436.19738 C669.376882,439.301136 667.956378,442.294209 666.272242,445.139214 C666.008185,445.582533 665.178292,446.488035 665.140569,447.025677 C665.140569,446.771004 665.961032,447.025677 665.008541,446.799301 L663.75427,446.478603 C661.868267,446.040012 659.9607,445.699988 658.039324,445.459913 C649.963448,444.415848 641.75633,445.192555 634.019573,447.7331 C631.190391,448.676332 632.378648,453.23214 635.273843,452.279476 C642.332139,449.959127 649.810728,449.202764 657.190569,450.062882 C658.977144,450.274223 660.749939,450.589164 662.5,451.006114 C664.461566,451.468297 666.517438,452.119127 668.214947,450.581659 C669.419463,449.253254 670.409039,447.744752 671.147865,446.110742 C671.996619,444.576419 672.769929,443.004367 673.467794,441.394585 C679.418505,427.746026 680.418149,412.654323 679.126157,398.005939 C678.333986,388.847162 676.759075,379.79214 675.174733,370.74655 C674.82167,369.498361 673.533256,368.76379 672.279537,369.095895 C671.043427,369.46986 670.317597,370.747552 670.629181,372.001048 L670.657473,371.972751 Z" id="Path" fill="#542A23"></path>
                    <path d="M621.844662,413.135371 C623.627046,419.370131 626.673132,425.15214 628.540391,431.368035 C630.388977,437.608535 631.406824,444.065578 631.567616,450.572227 C631.63363,452.996332 635.405872,453.005764 635.339858,450.572227 C635.177904,443.866963 634.157371,437.210111 632.303203,430.764367 C630.417082,424.397555 627.304982,418.502358 625.475445,412.107249 C624.815302,409.777467 621.165658,410.76786 621.844662,413.107074 L621.844662,413.135371 Z" id="Path" fill="#542A23"></path>
                    <path d="M645.675801,428.594934 C646.005872,432.481048 646.618861,436.395459 648.825623,439.725066 C650.174459,441.888297 652.355897,443.399068 654.855021,443.900769 C657.354145,444.402469 659.949502,443.850643 662.02847,442.375546 C668.809075,437.46131 665.017972,427.878079 667.818861,421.105677 L651.173843,418.79476 C651.032384,423.690131 650.230783,429.019389 651.626512,433.773275 C653.76726,441.083319 663.112989,441.762445 667.139858,435.801223 C669.572954,432.207511 670.685765,428.057293 671.657117,423.878777 C672.345552,420.888734 672.298399,416.153712 674.03363,413.767336 L670.996975,416.813974 L671.864591,416.182009 L659.397331,411.107424 C660.802491,415.012402 658.746619,419.247511 657.652669,423.048734 L655.766548,429.575895 C655.33274,431.066201 655.115836,433.424279 654.040747,434.612751 L664.320107,433.282795 C659.727402,430.358777 654.606584,430.641747 649.391459,430.104105 C644.496975,429.604192 639.574199,429.830568 635.415302,432.764017 L648.184342,440.092926 C648.674733,434.924017 652.267794,429.547598 649.504626,424.510742 C648.561566,422.841223 645.996441,421.256594 645.35516,420.492576 C644.317794,419.247511 643.299288,415.776419 642.525979,413.889956 C640.82847,409.62655 636.867616,406.645939 632.086299,407.957031 C628.040569,409.070044 624.447509,414.116332 626.154448,418.398603 C628.83274,425.11441 630.869751,431.603843 637.471174,435.452227 L634.43452,432.40559 L634.858897,433.075284 L634.010142,426.529258 C633.067082,431.132227 631.671352,435.348472 631.228114,440.083493 C630.643416,446.289956 638.96121,450.958952 643.997153,447.412402 C645.65694,446.242795 647.38274,446.865328 649.41032,447.072838 C651.4379,447.280349 654.125623,446.884192 655.775979,447.931179 C659.108688,449.856979 663.317387,449.316314 666.055338,446.610655 C670.864947,441.337991 672.109786,434.226026 674.03363,427.55738 C676.014057,420.700087 678.305694,413.625852 675.787722,406.589345 C674.109075,401.873188 668.092349,398.100262 663.311032,401.51476 C654.417972,407.938166 658.077046,418.973974 652.503559,427.227249 L668.016904,429.255197 C667.168149,426.368908 668.082918,421.775371 668.167794,418.785328 C668.129756,414.559859 664.990294,411.005714 660.802491,410.447162 C656.275801,409.90952 653.163701,412.512838 651.494484,416.531004 C650.384411,419.433222 649.762999,422.499408 649.655516,425.604891 C649.495196,427.934672 649.929004,430.679476 649.306584,432.914934 L651.485053,429.142009 L650.919217,429.623057 L659.180427,427.444192 L658.435409,427.18952 L663.509075,431.085066 C663.014556,430.319201 662.725505,429.438895 662.669751,428.528908 C662.283096,423.963668 659.048399,420.039825 654.182206,420.039825 C649.891281,420.039825 645.308007,423.935371 645.694662,428.528908 L645.675801,428.594934 Z" id="Path" fill="#542A23"></path>
                    <path d="M628.908185,432.320699 L629.191103,433.14131 C629.327917,433.739267 629.617057,434.291658 630.030427,434.744803 C630.362054,435.254279 630.815953,435.67259 631.350712,435.961572 C632.46972,436.545834 633.760011,436.713001 634.990925,436.433188 L636.113167,435.961572 C636.81096,435.548293 637.391936,434.963966 637.801246,434.263755 L638.282206,433.14131 C638.50871,432.32032 638.50871,431.453305 638.282206,430.632314 L638.008719,429.811703 C637.866788,429.213693 637.574657,428.66179 637.159964,428.20821 C636.83351,427.694386 636.378349,427.274912 635.83968,426.991441 C635.316313,426.650158 634.709945,426.457781 634.085587,426.434934 C633.461224,426.293328 632.810526,426.319361 632.199466,426.510393 L631.067794,426.991441 C630.369616,427.400092 629.788292,427.981521 629.379715,428.679825 L628.898754,429.811703 C628.6817,430.633947 628.6817,431.498455 628.898754,432.320699 L628.908185,432.320699 Z" id="Path" fill="#542A23"></path>
                    <path d="M598.220996,380.065677 C598.422791,379.66654 598.596117,379.253633 598.73968,378.830044 C598.825905,378.549568 598.888987,378.262493 598.928292,377.971703 C598.998763,377.728319 598.998763,377.469934 598.928292,377.22655 C598.919537,376.974375 598.841203,376.729537 598.701957,376.519127 L598.409609,376.141834 C598.178074,375.911844 597.89283,375.74326 597.579715,375.651354 C597.015657,375.481336 596.405411,375.567544 595.910498,375.887162 C595.767485,375.980277 595.631906,376.084344 595.504982,376.198428 L595.504982,376.198428 C595.401246,376.302183 595.325801,376.424803 595.212633,376.519127 L595.589858,376.226725 C595.561974,376.233524 595.532866,376.233524 595.504982,376.226725 L595.957651,376.038079 L595.891637,376.038079 L596.391459,375.972052 L596.334875,375.972052 C596.08274,375.95836 595.831653,376.013805 595.608719,376.132402 C595.378732,376.209569 595.171392,376.34242 595.00516,376.519127 C594.826222,376.687263 594.693139,376.898287 594.618505,377.132227 C594.495268,377.353736 594.436467,377.605319 594.448754,377.858515 L594.524199,378.358428 C594.606564,378.673503 594.772778,378.960355 595.00516,379.188472 L595.391815,379.480873 C595.677436,379.650422 596.002756,379.741528 596.334875,379.744978 C596.722891,379.753633 597.105431,379.652258 597.438256,379.452576 C597.631027,379.34494 597.80599,379.208125 597.95694,379.046987 C598.051246,378.952664 598.12669,378.830044 598.230427,378.745153 L597.843772,379.037555 L597.919217,379.037555 L597.466548,379.226201 L597.513701,379.226201 L597.013879,379.292227 L597.061032,379.292227 L596.56121,379.226201 L596.56121,379.226201 L595.250356,376.905852 C595.186319,377.339882 595.069128,377.764381 594.901423,378.169782 L595.090036,377.717031 C595.033452,377.839651 594.976868,377.971703 594.910854,378.094323 C594.778676,378.303969 594.703879,378.544665 594.69395,378.792314 C594.627933,379.039509 594.627933,379.299704 594.69395,379.5469 C594.749437,379.786585 594.866454,380.007657 595.033452,380.188297 C595.163768,380.392613 595.346025,380.558626 595.561566,380.669345 L596.014235,380.857991 C596.340776,380.952323 596.687338,380.952323 597.013879,380.857991 L597.466548,380.669345 C597.7465,380.50797 597.980307,380.277369 598.145552,379.999651 L598.220996,380.065677 Z" id="Path" fill="#542A23"></path>
                    <path d="M584.697509,372.831092 C584.106721,376.389545 584.727755,380.043347 586.461032,383.206638 C586.892324,383.946059 587.767345,384.302327 588.592349,384.07441 L590.054093,383.489607 C590.770685,383.267482 591.297845,382.656012 591.4121,381.91441 C591.511391,381.152145 591.138316,380.40586 590.469039,380.027948 C590.195552,379.895895 590.648221,380.235459 590.714235,380.339214 C590.516192,380.03738 590.846263,380.725939 590.714235,380.273188 C590.582206,379.820437 590.714235,380.433537 590.714235,380.273188 C590.714235,380.112838 590.714235,379.924192 590.667082,379.75441 C590.610498,378.990393 590.582206,378.216943 590.591637,377.452926 C590.601068,376.688908 590.648221,375.981485 590.714235,375.245764 C590.714235,375.06655 590.714235,374.877904 590.780249,374.69869 C590.827402,374.245939 590.780249,374.877904 590.780249,374.472314 C590.780249,374.066725 590.912278,373.623406 590.997153,373.198952 L588.224555,374.321397 L588.526335,374.510044 C589.110151,374.912541 589.870342,374.953534 590.494041,374.616152 C591.117741,374.278769 591.499553,373.620023 591.482339,372.911028 C591.465125,372.202034 591.051793,371.562601 590.412456,371.255895 L590.110676,371.067249 C589.604151,370.770673 588.988453,370.726848 588.445041,370.948689 C587.901628,371.17053 587.492442,371.632751 587.338078,372.199127 C586.960789,374.112852 586.771277,376.058858 586.772242,378.009432 C586.772242,379.744978 586.668505,382.395459 588.545196,383.272664 L588.997865,379.829869 L587.536121,380.424105 L589.667438,381.291878 C589.478826,380.952314 589.309075,380.612751 589.148754,380.263755 C588.988434,379.91476 589.271352,380.612751 589.08274,380.103406 C589.016726,379.952489 588.960142,379.801572 588.903559,379.641223 C588.658854,378.943532 588.469653,378.227592 588.337722,377.500087 C588.337722,377.311441 588.271708,377.122795 588.243416,376.934148 C588.290569,377.273712 588.243416,376.934148 588.243416,376.783231 C588.205754,376.429196 588.186867,376.073414 588.186833,375.71738 C588.186833,375.358952 588.186833,375.000524 588.186833,374.651528 C588.186833,374.481747 588.186833,374.321397 588.186833,374.151616 C588.186833,373.981834 588.186833,373.934672 588.186833,373.830917 C588.186833,374.057293 588.186833,374.066725 588.186833,373.830917 C588.437685,372.831697 587.861188,371.811236 586.875979,371.510568 C586.393245,371.377603 585.877462,371.442075 585.442294,371.689777 C585.007126,371.937478 584.68829,372.348078 584.55605,372.831092 L584.697509,372.831092 Z" id="Path" fill="#542A23"></path>
                    <path d="M713.708185,1012.73817 C713.00089,1025.20769 704.513345,1035.37572 698.289146,1045.57205 C696.54134,1048.43319 694.912989,1051.35406 693.404093,1054.33467 C691.88136,1057.11935 690.560813,1060.00995 689.452669,1062.9841 C688.669929,1065.26672 688.434164,1068.10585 690.452313,1069.83197 C692.470463,1071.55808 695.620285,1071.45432 697.996797,1071.51092 C708.982462,1071.70988 719.593517,1067.51697 727.476868,1059.86201 C729.431287,1057.94262 731.199562,1055.84242 732.758007,1053.58952 C734.370641,1051.25974 735.945552,1048.73188 738.312633,1047.08122 C740.679715,1045.43057 743.631495,1044.96838 746.413523,1044.31755 C749.113842,1043.8331 751.655087,1042.69662 753.816548,1041.00681 C758.399822,1037.08297 759.474911,1030.3483 759.069395,1024.65118 C758.578923,1017.81415 756.126304,1011.26391 752.005872,1005.78655 C751.062811,1004.58865 749.054093,1005.78655 749.968861,1006.97502 C753.550365,1011.66946 755.827741,1017.22726 756.570285,1023.08541 C757.154982,1027.96192 756.834342,1033.58358 753.741103,1037.65834 C750.308363,1042.22358 744.310498,1041.77083 739.519751,1043.77048 C734.351779,1045.92105 732.079004,1050.97677 728.731139,1055.08926 C722.06629,1063.19066 712.403064,1068.24436 701.948221,1069.09624 C699.469462,1069.31177 696.97465,1069.25801 694.507473,1068.9359 C693.300356,1068.77555 691.866904,1068.49258 691.395374,1067.20035 C691.119155,1066.01192 691.241777,1064.76559 691.744306,1063.6538 C692.841973,1060.73473 694.146716,1057.89782 695.648577,1055.16472 C697.044306,1052.44821 698.534342,1049.77886 700.118683,1047.15668 C706.644662,1036.36611 715.33968,1025.89624 716.084698,1012.76646 C716.169573,1011.25729 713.811922,1011.25729 713.727046,1012.76646 L713.708185,1012.73817 Z" id="Path" fill="#000000"></path>
                    <path d="M699.213345,1071.99197 C689.869599,1078.41425 678.393902,1080.94795 667.215302,1079.05677 C666.220394,1079.003 665.289035,1078.55083 664.631317,1077.80227 C664.344952,1077.29458 664.18636,1076.72484 664.169217,1076.14218 C663.546797,1069.2 666.366548,1062.47476 668.780783,1055.92873 C674.156228,1041.32751 677.758719,1025.82079 676.84395,1010.28576 L694.054804,1008.46533 C694.054804,1008.46533 685.699288,1003.23983 688.019217,1000.45729 L706.635231,1007.86166 L712.859431,1022.22707 L715.358541,1009.19162 C715.358541,1009.19162 746.8379,1011.66288 751.543772,1006.36192 C751.543772,1006.36192 772.621174,1037.60175 740.641993,1045.64751 C740.641993,1045.64751 732.663701,1047.87354 727.863523,1057.21153 C727.863523,1057.21153 711.369395,1072.54847 700.69395,1070.36017" id="Path" fill="#000000"></path>
                    <path d="M705.616726,1009.73869 C706.672954,1011.70061 707.678885,1013.68454 708.63452,1015.69048 C709.11548,1016.69031 709.57758,1017.69956 710.030249,1018.71825 C710.275445,1019.27476 711.039324,1020.43493 710.67153,1021.0386 C710.404172,1021.59202 710.606725,1022.25802 711.13691,1022.56879 C711.667095,1022.87956 712.347029,1022.73072 712.69911,1022.22707 C713.245717,1021.14444 713.217429,1019.86065 712.623665,1018.80314 C712.133274,1017.64297 711.60516,1016.50166 711.077046,1015.36035 C710.001957,1013.05886 708.860854,1010.78882 707.653737,1008.55022 C706.937011,1007.22026 704.9,1008.40873 705.616726,1009.73869 L705.616726,1009.73869 Z" id="Path" fill="#000000"></path>
                    <path d="M711.690036,1011.80437 C712.208719,1017.90707 710.652669,1023.84943 708.700534,1029.57485 C706.872905,1035.03105 704.634589,1040.34092 702.004804,1045.45886 C700.693346,1047.98554 699.254911,1050.44423 697.695018,1052.8255 C696.129537,1055.21188 694.337722,1057.40017 692.677936,1059.70166 C691.051075,1061.69539 690.120475,1064.16639 690.027936,1066.73817 C690.056972,1069.19542 691.423716,1071.44119 693.592705,1072.59563 C696.223843,1074.04821 699.44911,1074.33118 702.391459,1074.53869 C705.83363,1074.78393 709.294662,1074.78393 712.670819,1075.58568 C714.141993,1075.92524 714.773843,1073.69921 713.293238,1073.30306 C707.766904,1072.01083 701.872776,1072.9069 696.421886,1071.22795 C693.922776,1070.46393 692.159253,1068.77555 692.413879,1066.00245 C692.668505,1063.22934 694.469751,1061.1731 696.035231,1059.16402 C702.636655,1050.62777 707.351957,1040.80873 710.831851,1030.62183 C712.916014,1024.57572 714.604093,1018.24664 714.047687,1011.75721 C713.925089,1010.25747 711.567438,1010.2386 711.690036,1011.75721 L711.690036,1011.80437 Z" id="Path" fill="#FFFFFF"></path>
                    <path d="M734.266904,684.06917 C730.758719,683.33345 727.259964,682.427948 723.695196,681.984629 C719.922954,681.513013 716.150712,681.579039 712.37847,681.484716 C711.727422,681.484716 711.199644,682.01259 711.199644,682.663755 C711.199644,683.314921 711.727422,683.842795 712.37847,683.842795 C716.094128,683.937118 719.875801,683.842795 723.572598,684.323843 C726.948754,684.738865 730.334342,685.644367 733.672776,686.342358 C735.153381,686.653624 735.785231,684.380437 734.295196,684.06917 L734.266904,684.06917 Z" id="Path" fill="#000000"></path>
                    <path d="M752.816904,675.221659 C739.8121,673.335197 726.712989,672.608908 713.604448,671.901485 C712.086121,671.816594 712.086121,674.174672 713.604448,674.259563 C726.496085,674.957555 739.397153,675.67441 752.185053,677.494847 C753.675089,677.702358 754.31637,675.42917 752.816904,675.221659 L752.816904,675.221659 Z" id="Path" fill="#FFFFFF"></path>
                    <path d="M603.41726,646.61345 C602.222716,690.83214 601.521708,735.057118 601.314235,779.288384 C601.106762,823.305852 601.386536,867.323319 602.153559,911.340786 C602.587367,936.160349 603.175208,960.976769 603.917082,985.790044 C603.917082,987.308646 606.321886,987.308646 606.274733,985.790044 C604.954448,941.58393 604.124555,897.358952 603.785053,853.115109 C603.445552,809.097642 603.593298,765.080175 604.228292,721.062707 C604.586655,696.236856 605.102195,671.417293 605.774911,646.604017 C605.774911,645.952852 605.247133,645.424978 604.596085,645.424978 C603.945038,645.424978 603.41726,645.952852 603.41726,646.604017 L603.41726,646.61345 Z" id="Path" fill="#000000"></path>
                    <path d="M746.705872,620.268996 C745.499378,610.888391 741.671735,602.038426 735.662633,594.735721 C732.748577,591.18917 729.22153,587.623755 725.16637,585.378865 C721.667616,583.44524 716.858007,582.228472 713.557295,585.190218 C710.256584,588.151965 711.029893,593.443493 712.406762,597.273013 C714.044625,601.685709 716.014994,605.967702 718.30089,610.082096 C722.931317,618.571179 728.476512,626.541485 733.644484,634.719301 C739.425445,643.878079 744.763167,653.423581 747.469751,663.959476 C747.657271,664.567812 748.293747,664.917418 748.90762,664.749273 C749.521493,664.581128 749.891067,663.955956 749.742527,663.336943 C745.225267,645.736245 733.795374,631.267074 724.487367,616.024454 C722.139146,612.185502 719.904093,608.261659 717.885943,604.215197 C716.942883,602.168384 715.999822,600.102707 715.151068,597.989869 C714.302539,596.058856 713.74937,594.011126 713.510142,591.915459 C713.378114,589.953537 713.764769,587.859563 715.443416,586.62393 C717.122064,585.388297 719.215658,585.60524 720.988612,586.142882 C725.128648,587.359651 728.58968,590.57607 731.503737,593.622707 C738.486043,600.915716 742.9679,610.241122 744.301068,620.250131 C744.48968,621.731004 746.847331,621.749869 746.658719,620.250131 L746.705872,620.268996 Z" id="Path" fill="#FFFFFF"></path>
                    <path d="M727.957829,684.993537 C728.118149,689.087162 728.137011,693.180786 728.297331,697.255546 C728.457651,701.330306 728.938612,705.405066 729.466726,709.460961 C729.655338,710.941834 732.012989,710.960699 731.824377,709.460961 C731.296263,705.405066 730.815302,701.339738 730.654982,697.255546 C730.494662,693.171354 730.475801,689.077729 730.31548,684.993537 C730.258897,683.484367 727.901246,683.474934 727.957829,684.993537 Z" id="Path" fill="#000000"></path>
                    <path d="M729.362989,711.53607 L728.467082,728.702882 C728.391637,730.221485 730.749288,730.221485 730.824733,728.702882 L731.720641,711.53607 C731.796085,710.017467 729.438434,710.0269 729.362989,711.53607 Z" id="Path" fill="#000000"></path>
                </g>
            </g>
        </g>
    </g>
</svg>